<svg width="18" height="18" viewBox="0 0 18 18" fill="none" xmlns="http://www.w3.org/2000/svg">
<path d="M1.18848 16.1875C1.18848 16.5332 1.46777 16.8125 1.81348 16.8125H16.1885C16.5342 16.8125 16.8135 16.5332 16.8135 16.1875V7.98438H1.18848V16.1875ZM16.1885 2.59375H12.9072V1.34375C12.9072 1.25781 12.8369 1.1875 12.751 1.1875H11.6572C11.5713 1.1875 11.501 1.25781 11.501 1.34375V2.59375H6.50098V1.34375C6.50098 1.25781 6.43066 1.1875 6.34473 1.1875H5.25098C5.16504 1.1875 5.09473 1.25781 5.09473 1.34375V2.59375H1.81348C1.46777 2.59375 1.18848 2.87305 1.18848 3.21875V6.65625H16.8135V3.21875C16.8135 2.87305 16.5342 2.59375 16.1885 2.59375Z" fill="white"/>
</svg>
