<svg width="97" height="97" viewBox="0 0 97 97" fill="none" xmlns="http://www.w3.org/2000/svg">
<path d="M23.1412 30.002H15.6031L12.9166 55.222H12.2551L11.1123 60.562H12.4355L11.7739 66.002H16.826L17.1869 60.662H19.3722H21.5574L21.9183 66.002H26.9704L23.1412 30.002ZM17.4876 55.342L19.2719 34.922L21.0763 55.342H17.4876ZM41.2848 30.002H32.0827L30.6793 35.402H32.0827V65.042H31.381V66.002H37.3955V55.582L41.4051 55.482C42.6107 55.4457 43.7551 54.9436 44.5967 54.0816C45.4383 53.2196 45.9113 52.0652 45.916 50.862V34.562C45.895 33.3487 45.3985 32.1919 44.5328 31.3396C43.6671 30.4872 42.5012 30.007 41.2848 30.002ZM40.2223 49.882H37.4155V34.922H40.2223V49.882Z" fill="white"/>
<path d="M64.3006 35.2614V29.9414H51.7505L50.4072 35.2614H51.8306V45.1214V50.6614V60.5214V66.0214V66.0614H64.3006V60.5214H57.3639V50.6614H62.2758V45.1214H57.3639V35.2614H64.3006Z" fill="white"/>
<path d="M81.5217 46.9414L85.9323 29.9414H79.978L77.3918 41.0414L74.7053 29.9414H74.6251H69.9739L69.3925 32.4214L68.751 35.2214H70.1343L73.1816 46.9414L73.2217 49.3614L69.0116 66.0614H74.7053L77.3517 54.5814L79.978 66.0614H85.6917L81.4816 49.3614L81.5217 46.9414Z" fill="white"/>
</svg>
