<svg width="16" height="15" viewBox="0 0 16 15" fill="none" xmlns="http://www.w3.org/2000/svg">
<path d="M4.28684 8.0545L6.93734 10.7065L5.87759 11.767L6.93884 12.8282L5.87834 13.8888L4.02209 12.0325L1.90034 14.1542L0.839844 13.0938L2.96159 10.9713L1.10534 9.11575L2.16584 8.05525L3.22634 9.115L4.28609 8.0545H4.28684ZM1.24934 0.25L3.90884 0.25225L12.7716 9.11575L13.8328 8.05525L14.8933 9.11575L13.0378 10.972L15.1588 13.0938L14.0983 14.1542L11.9766 12.0325L10.1203 13.8888L9.05984 12.8282L10.1203 11.767L1.25159 2.89825L1.24934 0.25ZM12.0921 0.25L14.7493 0.25225L14.7508 2.8945L11.7111 5.9335L9.05909 3.28225L12.0921 0.25Z" fill="white"/>
</svg>
