<svg width="97" height="97" viewBox="0 0 97 97" fill="none" xmlns="http://www.w3.org/2000/svg">
<path d="M23.1682 49.6907H13.525V56.1507H23.088C23.088 56.1507 22.9075 58.7107 20.7824 58.7107H13.525C13.525 58.7107 10.3373 58.7107 10.3373 55.6307V50.4107C10.328 49.8066 10.4765 49.2104 10.7683 48.6808C11.0601 48.1513 11.485 47.7067 12.0013 47.3907C12.4505 47.1236 12.962 46.9788 13.4849 46.9707H20.9629C20.9629 46.9707 23.1682 47.7507 23.1682 49.6907ZM28.2203 49.5707H38.2444C38.2444 49.5707 38.0239 46.9707 36.2396 46.9707H28.2203C28.2203 46.9707 25.3534 47.3507 25.3534 49.5707V51.1107C25.3389 51.7712 25.5432 52.418 25.9348 52.9507C26.1817 53.3115 26.5139 53.6061 26.9021 53.8084C27.2902 54.0107 27.7223 54.1145 28.1602 54.1107H35.578V56.2707H25.3534C25.4757 56.9216 25.8161 57.5117 26.3189 57.9442C26.8216 58.3766 27.4567 58.6258 28.1201 58.6507H36.1394C36.8698 58.5651 37.5387 58.2007 38.0059 57.634C38.473 57.0673 38.7022 56.3423 38.6454 55.6107V54.3307C38.6445 54.1184 38.6036 53.9081 38.5251 53.7107C38.2914 53.0675 37.8583 52.5152 37.2888 52.134C36.7192 51.7528 36.0428 51.5625 35.3575 51.5907C32.6109 51.5907 28.1401 51.4907 28.1401 51.4907L28.2203 49.5707ZM71.8251 49.1307H61.1996V56.3707H69.3793V53.7907H65.129C65.129 53.7907 63.024 53.3507 63.024 51.9307H71.8251V56.8307C71.6968 57.402 71.376 57.9121 70.9164 58.2761C70.4567 58.64 69.8859 58.8358 69.2991 58.8307H61.2798C60.5814 58.8308 59.9113 58.5554 59.4156 58.0646C58.9199 57.5738 58.6387 56.9074 58.6334 56.2107V49.5907C58.6387 48.894 58.9199 48.2277 59.4156 47.7369C59.9113 47.2461 60.5814 46.9707 61.2798 46.9707H69.6599C70.2342 46.9707 70.7849 47.1983 71.191 47.6034C71.597 48.0085 71.8251 48.5579 71.8251 49.1307ZM81.2277 58.6307H79.9647C78.4121 58.6307 76.9231 58.0155 75.8252 56.9202C74.7274 55.825 74.1106 54.3396 74.1106 52.7907C74.1106 52.0248 74.2622 51.2663 74.5566 50.5589C74.8511 49.8515 75.2826 49.209 75.8265 48.6683C76.3703 48.1276 77.0158 47.6993 77.726 47.408C78.4361 47.1167 79.1969 46.9681 79.9647 46.9707H81.2277C81.9939 46.9707 82.7525 47.1213 83.4603 47.4138C84.1681 47.7062 84.8113 48.1349 85.353 48.6754C85.8948 49.2158 86.3245 49.8574 86.6177 50.5635C86.9109 51.2696 87.0618 52.0264 87.0618 52.7907C87.0644 53.5567 86.9154 54.3157 86.6234 55.0241C86.3314 55.7325 85.9021 56.3765 85.3601 56.919C84.8181 57.4616 84.1741 57.8921 83.465 58.1858C82.7558 58.4795 81.9956 58.6307 81.2277 58.6307ZM84.5156 49.0907H76.6768V56.4507H84.5156V49.0907Z" fill="white"/>
<path d="M52.4191 35.0299V36.0299H53.0606L53.9828 35.5299V34.7699H54.2234V35.4099H54.7647V35.8099H61.6413V36.0099H61.9019V34.7499H62.1625V36.0099H62.6236V36.4899H64.6284V36.2699H64.8289V36.5299H65.8113V36.9299H64.5081V36.7699H62.6437V36.9499H61.6413V37.2899H58.6942L57.6316 38.2699L57.9524 39.8299L57.3509 40.1899C57.3509 40.1899 56.95 42.7699 55.0254 42.5499L52.3589 41.2699L52.1585 42.1299L52.8802 42.7099V45.7699L52.1585 46.6899L51.6172 46.5499V47.7499C52.9239 49.0586 53.8342 50.7084 54.2435 52.5099C54.5222 52.7692 54.7057 53.1143 54.7647 53.4899C54.9129 54.0781 54.9803 54.6836 54.9652 55.2899C54.781 56.0106 54.6669 56.7474 54.6244 57.4899C54.7846 58.1523 54.7498 58.8468 54.5241 59.4899V61.1299C54.8038 61.6086 55.1404 62.0518 55.5266 62.4499C55.8473 62.6099 56.9099 62.9099 56.95 63.1899V63.9099H54.3036C54.0476 63.777 53.779 63.6698 53.5017 63.5899C53.1609 63.5899 52.5594 63.9499 52.0783 63.5899C51.9838 63.4742 51.9197 63.3368 51.8917 63.1901C51.8637 63.0435 51.8727 62.8922 51.9179 62.7499L52.4191 61.5499V59.6899C51.8887 58.9999 51.6382 58.1359 51.7174 57.2699C51.8577 55.8099 52.0783 55.4099 52.0582 55.0099C52.0382 54.6099 51.9179 54.2699 51.6172 54.2699H50.9556L49.1111 51.6299H48.3894L48.0486 50.8099H47.7479V51.4299C47.1173 51.9943 46.6822 52.7435 46.5049 53.5699C46.5049 54.6899 46.2041 54.8299 45.9235 55.0299C45.3249 55.5383 44.9387 56.2518 44.8409 57.0299C44.8669 57.7358 44.6782 58.433 44.2996 59.0299C43.9988 59.4299 44.059 60.2099 43.7182 60.4299C43.4362 60.5829 43.2003 60.808 43.0347 61.0823C42.869 61.3565 42.7797 61.6698 42.7759 61.9899C42.6811 62.6934 42.7358 63.4089 42.9363 64.0899C42.9796 64.2538 42.9796 64.4261 42.9363 64.5899C42.5146 64.6833 42.085 64.7369 41.6532 64.7499C41.0718 64.7499 40.4102 64.7499 40.3701 64.3299C40.531 63.0808 40.8061 61.849 41.1921 60.6499C41.0517 60.3621 40.9699 60.0494 40.9515 59.7299C41.0517 59.1598 41.2929 58.6236 41.6532 58.1699C41.6068 57.8851 41.6068 57.5947 41.6532 57.3099C41.6532 57.0499 43.0365 54.8899 43.3172 54.3499C43.1243 53.6224 43.1243 52.8574 43.3172 52.1299C43.638 51.2099 43.7382 50.8299 43.638 50.5899C43.5377 50.3499 43.1769 49.8299 43.237 49.5899C43.2972 49.3499 43.4976 49.4899 43.4976 49.4899V49.0099H43.217C43.2134 48.807 43.2819 48.6094 43.4103 48.452C43.5387 48.2947 43.7188 48.1876 43.9186 48.1499C43.8497 47.5174 43.7426 46.8896 43.5979 46.2699C43.4976 45.7299 43.4575 44.7499 44.0991 44.6499C44.0991 44.6499 43.9988 44.2099 43.6781 44.2099C43.5122 44.1812 43.3427 44.1812 43.1769 44.2099L43.4575 40.8099H44.881C44.5568 39.578 44.6341 38.2751 45.1015 37.0899C45.9435 35.6299 47.1063 34.7499 48.1689 35.5499H48.4094L48.3092 35.1099C48.0781 34.4821 48.0944 33.7902 48.3549 33.174C48.6154 32.5577 49.1006 32.063 49.7126 31.7899C50.2198 31.6506 50.7547 31.6456 51.2644 31.7754C51.7742 31.9052 52.2412 32.1652 52.6196 32.5299C52.9106 32.8051 53.0989 33.171 53.1536 33.5673C53.2082 33.9635 53.1259 34.3665 52.9203 34.7099C52.7895 34.8647 52.6148 34.9763 52.4191 35.0299Z" fill="white"/>
</svg>
