<svg width="21" height="21" viewBox="0 0 21 21" fill="none" xmlns="http://www.w3.org/2000/svg">
<path d="M14.8923 0.76982L12.905 2.75698L18.2428 8.09441L20.2301 6.10724C21.2566 5.08081 21.2566 3.418 20.2301 2.39158L18.6123 0.76982C17.5858 -0.256607 15.9229 -0.256607 14.8964 0.76982H14.8923ZM11.977 3.68487L2.40585 13.2594C1.97882 13.6864 1.66676 14.216 1.49431 14.7949L0.0407757 19.7341C-0.061875 20.0831 0.0325637 20.4567 0.287137 20.7113C0.541711 20.9658 0.91536 21.0602 1.26027 20.9617L6.19982 19.5083C6.77877 19.3358 7.30845 19.0238 7.73547 18.5968L17.3148 9.0223L11.977 3.68487Z" fill="white"/>
</svg>