<svg width="18" height="18" viewBox="0 0 18 18" fill="none" xmlns="http://www.w3.org/2000/svg">
<path d="M3.37402 1.5C2.87674 1.5 2.39983 1.69754 2.0482 2.04917C1.69657 2.40081 1.49902 2.87772 1.49902 3.375V14.625C1.49902 15.1223 1.69657 15.5992 2.0482 15.9508C2.39983 16.3025 2.87674 16.5 3.37402 16.5H14.624C15.1213 16.5 15.5982 16.3025 15.9498 15.9508C16.3015 15.5992 16.499 15.1223 16.499 14.625V3.375C16.499 2.87772 16.3015 2.40081 15.9498 2.04917C15.5982 1.69754 15.1213 1.5 14.624 1.5H3.37402ZM6.29069 5.875C6.29069 6.09601 6.20289 6.30797 6.04661 6.46425C5.89033 6.62054 5.67837 6.70833 5.45736 6.70833C5.23634 6.70833 5.02438 6.62054 4.8681 6.46425C4.71182 6.30797 4.62402 6.09601 4.62402 5.875C4.62402 5.65399 4.71182 5.44202 4.8681 5.28574C5.02438 5.12946 5.23634 5.04167 5.45736 5.04167C5.67837 5.04167 5.89033 5.12946 6.04661 5.28574C6.20289 5.44202 6.29069 5.65399 6.29069 5.875ZM7.74902 5.875C7.74902 5.70924 7.81487 5.55027 7.93208 5.43306C8.04929 5.31585 8.20826 5.25 8.37402 5.25H12.9574C13.1231 5.25 13.2821 5.31585 13.3993 5.43306C13.5165 5.55027 13.5824 5.70924 13.5824 5.875C13.5824 6.04076 13.5165 6.19973 13.3993 6.31694C13.2821 6.43415 13.1231 6.5 12.9574 6.5H8.37402C8.20826 6.5 8.04929 6.43415 7.93208 6.31694C7.81487 6.19973 7.74902 6.04076 7.74902 5.875ZM7.74902 9C7.74902 8.83424 7.81487 8.67527 7.93208 8.55806C8.04929 8.44085 8.20826 8.375 8.37402 8.375H12.9574C13.1231 8.375 13.2821 8.44085 13.3993 8.55806C13.5165 8.67527 13.5824 8.83424 13.5824 9C13.5824 9.16576 13.5165 9.32473 13.3993 9.44194C13.2821 9.55915 13.1231 9.625 12.9574 9.625H8.37402C8.20826 9.625 8.04929 9.55915 7.93208 9.44194C7.81487 9.32473 7.74902 9.16576 7.74902 9ZM8.37402 11.5H12.9574C13.1231 11.5 13.2821 11.5658 13.3993 11.6831C13.5165 11.8003 13.5824 11.9592 13.5824 12.125C13.5824 12.2908 13.5165 12.4497 13.3993 12.5669C13.2821 12.6842 13.1231 12.75 12.9574 12.75H8.37402C8.20826 12.75 8.04929 12.6842 7.93208 12.5669C7.81487 12.4497 7.74902 12.2908 7.74902 12.125C7.74902 11.9592 7.81487 11.8003 7.93208 11.6831C8.04929 11.5658 8.20826 11.5 8.37402 11.5ZM5.45736 9.83333C5.23634 9.83333 5.02438 9.74553 4.8681 9.58925C4.71182 9.43297 4.62402 9.22101 4.62402 9C4.62402 8.77899 4.71182 8.56702 4.8681 8.41074C5.02438 8.25446 5.23634 8.16667 5.45736 8.16667C5.67837 8.16667 5.89033 8.25446 6.04661 8.41074C6.20289 8.56702 6.29069 8.77899 6.29069 9C6.29069 9.22101 6.20289 9.43297 6.04661 9.58925C5.89033 9.74553 5.67837 9.83333 5.45736 9.83333ZM6.29069 12.125C6.29069 12.346 6.20289 12.558 6.04661 12.7143C5.89033 12.8705 5.67837 12.9583 5.45736 12.9583C5.23634 12.9583 5.02438 12.8705 4.8681 12.7143C4.71182 12.558 4.62402 12.346 4.62402 12.125C4.62402 11.904 4.71182 11.692 4.8681 11.5357C5.02438 11.3795 5.23634 11.2917 5.45736 11.2917C5.67837 11.2917 5.89033 11.3795 6.04661 11.5357C6.20289 11.692 6.29069 11.904 6.29069 12.125Z" fill="white"/>
</svg>
