<svg width="18" height="18" viewBox="0 0 18 18" fill="none" xmlns="http://www.w3.org/2000/svg">
<path d="M7.89102 9.85065C7.70768 9.84232 7.52435 9.83398 7.33268 9.83398C5.31602 9.83398 3.43268 10.3923 1.82435 11.3507C1.09102 11.784 0.666016 12.6007 0.666016 13.459V15.6673H8.38268C7.79409 14.8277 7.43851 13.8471 7.35214 12.8253C7.26578 11.8036 7.45171 10.7772 7.89102 9.85065Z" fill="white"/>
<path d="M7.33431 9.00065C9.17526 9.00065 10.6676 7.50827 10.6676 5.66732C10.6676 3.82637 9.17526 2.33398 7.33431 2.33398C5.49336 2.33398 4.00098 3.82637 4.00098 5.66732C4.00098 7.50827 5.49336 9.00065 7.33431 9.00065Z" fill="white"/>
<path d="M16.2926 12.3327C16.2926 12.1493 16.2676 11.9827 16.2426 11.8077L17.1926 10.966L16.3592 9.52435L15.1509 9.93268C14.8842 9.70768 14.5842 9.53268 14.2509 9.40768L14.0009 8.16602H12.3342L12.0842 9.40768C11.7509 9.53268 11.4509 9.70768 11.1842 9.93268L9.97591 9.52435L9.14258 10.966L10.0926 11.8077C10.0676 11.9827 10.0426 12.1493 10.0426 12.3327C10.0426 12.516 10.0676 12.6827 10.0926 12.8577L9.14258 13.6993L9.97591 15.141L11.1842 14.7327C11.4509 14.9577 11.7509 15.1327 12.0842 15.2577L12.3342 16.4993H14.0009L14.2509 15.2577C14.5842 15.1327 14.8842 14.9577 15.1509 14.7327L16.3592 15.141L17.1926 13.6993L16.2426 12.8577C16.2676 12.6827 16.2926 12.516 16.2926 12.3327ZM13.1676 13.9993C12.2509 13.9993 11.5009 13.2493 11.5009 12.3327C11.5009 11.416 12.2509 10.666 13.1676 10.666C14.0842 10.666 14.8342 11.416 14.8342 12.3327C14.8342 13.2493 14.0842 13.9993 13.1676 13.9993Z" fill="white"/>
</svg>
