<svg width="97" height="96" viewBox="0 0 97 96" fill="none" xmlns="http://www.w3.org/2000/svg">
<path d="M26.0274 13C25.4196 13 24.8654 13.34 24.5927 13.8794C24.3217 14.4187 24.3774 15.0628 24.7431 15.5448L29.2351 21.4828V74.5172L23.1392 80.4552C22.7752 80.9372 22.7194 81.5813 22.9889 82.1207C23.2615 82.66 23.8157 83 24.4236 83H70.9354C71.423 83 71.8837 82.7805 72.1884 82.4034L80.2077 74.4489C80.5926 73.97 80.665 73.3168 80.3988 72.7647C80.1309 72.2159 79.5721 71.8636 78.9547 71.8636H45.2737V14.5909C45.2737 13.7111 44.5568 13 43.6698 13H26.0274ZM48.4814 19.3636V22.5455C64.3997 22.5455 77.3508 35.392 77.3508 51.1818C77.3508 57.7745 75.0714 63.8359 71.2831 68.6818H75.2426C78.5931 63.6561 80.5585 57.6457 80.5585 51.1818C80.5585 33.6373 66.1687 19.3636 48.4814 19.3636ZM48.4814 25.7273V68.6818H67.0698C71.442 64.1159 74.1431 57.9623 74.1431 51.1818C74.1431 37.1468 62.6306 25.7273 48.4814 25.7273ZM26.0274 28.4958C20.4845 33.8954 16.8972 41.2627 16.4513 49.4511C16.4208 50.0238 16.4043 50.6011 16.4043 51.1818C16.4043 52.1205 16.4463 53.0511 16.5265 53.969C17.2097 61.7327 20.7235 68.7021 26.0274 73.8678V69.1386C22.0226 64.2227 19.612 57.9798 19.612 51.1818C19.612 44.3839 22.0226 38.141 26.0274 33.2251V28.4958ZM26.0274 38.8865C23.9889 42.5344 22.8197 46.7241 22.8197 51.1818C22.8197 55.6395 23.9889 59.8292 26.0274 63.4772V38.8865Z" fill="white"/>
</svg>
