<svg width="188" height="74" viewBox="0 0 188 74" fill="none" xmlns="http://www.w3.org/2000/svg">
<path d="M9.1876 38.6836H0.335938V40.9436L3.17424 43.9569V65.6153L1.05754 70.559H20.5889L22.1284 65.4269L8.99518 65.6153L9.1876 38.6836Z" fill="white"/>
<path d="M9.1876 1.01562H0.335938V3.27562L3.17424 6.28896V27.9473L1.05754 32.891H20.5889L22.1284 27.806L8.99518 27.9473L9.1876 1.01562Z" fill="white"/>
<path d="M24.6289 32.891H43.7273V26.9585H31.3639L31.412 20.414H40.7447L43.1501 14.1519H31.7006L31.5082 7.8898H43.7273V1.01562H24.6289V32.891Z" fill="white"/>
<path d="M24.6289 70.559H43.7273V64.6265H31.3639L31.412 58.0819H40.7447L43.1501 51.8198H31.7006L31.5082 45.5578H43.7273V38.6836H24.6289V70.559Z" fill="white"/>
<path d="M80.8672 70.559H99.9175V64.6265H87.554L87.6503 58.0819H96.9349L99.3402 51.8198H87.8908L87.7465 45.5578H99.9175V38.6836H80.8672V70.559Z" fill="white"/>
<path d="M159.377 26.9585H147.013L147.061 20.414H156.394L158.799 14.1519H147.35L147.158 7.8898H159.377V1.01562H140.278V32.891H159.377V26.9585Z" fill="white"/>
<path d="M62.6359 1.01898H54.7945L57.3442 5.16231L45.8947 32.8944H53.2551L55.6604 26.7265H62.1068H68.505L70.9103 32.8944H78.3188L65.2818 1.01898H62.6359ZM62.2511 21.1236H57.4404L62.2511 9.68231L67.0618 21.1236H62.2511ZM91.7887 33.9773C110.214 33.9773 109.3 15.4265 109.3 15.4265H93.28L89.1909 21.1236H101.458C100.906 23.1397 99.6284 24.893 97.8607 26.0608C96.093 27.2286 93.9539 27.7325 91.8368 27.4798C90.5059 27.484 89.1885 27.2178 87.968 26.6982C86.7475 26.1786 85.6505 25.4168 84.7462 24.461C83.8419 23.5051 83.1501 22.3761 82.7145 21.1452C82.2789 19.9143 82.109 18.6083 82.2154 17.3098C82.2372 14.696 83.2817 12.1898 85.1341 10.3068C86.9864 8.42381 89.5057 7.30726 92.1736 7.18689C94.0261 7.19595 95.8441 7.67861 97.4473 8.58706C99.0505 9.4955 100.383 10.7982 101.314 12.3661L107.039 9.21148C105.403 6.75208 103.203 4.70077 100.614 3.22116C98.0244 1.74155 95.1178 0.874578 92.1255 0.689394C89.9205 0.656097 87.7317 1.0621 85.6922 1.88272C83.6526 2.70334 81.8049 3.92143 80.2614 5.46289C78.7179 7.00435 77.511 8.83698 76.7139 10.8493C75.9168 12.8617 75.5462 15.0117 75.6248 17.1686C75.4722 19.3309 75.778 21.5008 76.523 23.542C77.2679 25.5832 78.436 27.4516 79.9538 29.03C81.4716 30.6083 83.3065 31.8626 85.3431 32.7139C87.3797 33.5653 89.5742 33.9954 91.7887 33.9773ZM62.4435 53.3757L58.4506 59.1198H70.7179C70.1742 61.1378 68.8967 62.8921 67.1253 64.0538C65.3538 65.2154 63.2102 65.7044 61.0965 65.429C59.7699 65.4326 58.4569 65.1678 57.2399 64.651C56.023 64.1342 54.9283 63.3767 54.0248 62.4261C53.1212 61.4754 52.4283 60.3522 51.9895 59.1269C51.5508 57.9016 51.3756 56.6008 51.4751 55.3061C51.3435 53.0182 52.0239 50.7562 53.4012 48.9032C54.7784 47.0501 56.7679 45.7201 59.0324 45.1383C61.297 44.5565 63.6974 44.7587 65.827 45.7108C67.9566 46.6628 69.6845 48.3062 70.7179 50.3623L76.4426 47.2077C74.807 44.7483 72.6069 42.697 70.0177 41.2174C67.4284 39.7378 64.5218 38.8708 61.5295 38.6856C59.3319 38.615 57.1425 38.9827 55.0947 39.7663C53.0468 40.5498 51.1832 41.7329 49.6172 43.2436C48.0512 44.7542 46.8155 46.5609 45.9854 48.5536C45.1552 50.5464 44.748 52.6836 44.7883 54.8352C44.6002 57.0142 44.88 59.2077 45.6096 61.2746C46.3392 63.3415 47.5025 65.2361 49.0247 66.8368C50.547 68.4375 52.3945 69.7089 54.4486 70.5692C56.5028 71.4295 58.7181 71.8598 60.9522 71.8323C79.3771 71.8323 78.4631 53.2815 78.4631 53.2815L62.4435 53.3757ZM136.817 24.0427V1.01898H129.649V21.8769C129.663 23.2609 129.131 24.5969 128.163 25.6059C127.194 26.6148 125.866 27.2187 124.453 27.2915C122.93 27.2672 121.476 26.6642 120.399 25.6098C119.321 24.5554 118.705 23.1324 118.68 21.6415V1.01898H111.945V24.0427C111.926 25.5384 112.344 27.0085 113.148 28.2802C114.43 30.0393 116.122 31.4732 118.084 32.4626C120.046 33.452 122.222 33.9682 124.429 33.9682C126.637 33.9682 128.812 33.452 130.774 32.4626C132.737 31.4732 134.429 30.0393 135.71 28.2802C136.481 26.9986 136.865 25.5292 136.817 24.0427Z" fill="white"/>
<path d="M124.355 58.4598L109.731 39.2969H104.68H103.188H100.639L103.188 43.2519V70.5602H109.298V49.561L124.355 70.5602H131.62V39.2969H124.355V58.4598Z" fill="white"/>
<path d="M144.704 38.8243H134.312V72.3006H144.704C147.026 72.4212 149.349 72.0776 151.531 71.2909C153.713 70.5042 155.708 69.2908 157.396 67.7247C159.083 66.1585 160.427 64.2725 161.345 62.1815C162.263 60.0905 162.737 57.8384 162.737 55.5625C162.737 53.2865 162.263 51.0344 161.345 48.9434C160.427 46.8524 159.083 44.9664 157.396 43.4002C155.708 41.8341 153.713 40.6207 151.531 39.834C149.349 39.0473 147.026 38.7037 144.704 38.8243ZM144.704 66.4152H140.326V44.7097H144.704C146.221 44.6119 147.743 44.8199 149.175 45.321C150.607 45.8221 151.919 46.6056 153.029 47.6229C154.14 48.6403 155.025 49.8699 155.63 51.2355C156.235 52.6012 156.547 54.0739 156.547 55.5625C156.547 57.051 156.235 58.5237 155.63 59.8893C155.025 61.255 154.14 62.4846 153.029 63.502C151.919 64.5193 150.607 65.3028 149.175 65.8039C147.743 66.305 146.221 66.513 144.704 66.4152Z" fill="white"/>
<path d="M176.6 51.8674H174.772C172.319 51.8674 169.961 50.6903 169.961 48.1478C169.961 46.7353 170.635 44.3811 175.157 44.1928C176.605 44.2847 178.009 44.7182 179.248 45.456C180.488 46.1939 181.527 47.2143 182.277 48.4303L184.875 46.9236L187.472 45.4169C186.156 43.2863 184.31 41.5168 182.106 40.2736C179.902 39.0303 177.412 38.3539 174.868 38.3073C173.463 38.1413 172.038 38.2689 170.687 38.6816C169.336 39.0944 168.09 39.7829 167.031 40.7018C165.972 41.6207 165.124 42.749 164.543 44.0122C163.963 45.2755 163.663 46.6449 163.663 48.0301C163.663 49.4152 163.963 50.7846 164.543 52.0479C165.124 53.3111 165.972 54.4394 167.031 55.3583C168.09 56.2772 169.336 56.9658 170.687 57.3785C172.038 57.7913 173.463 57.9188 174.868 57.7528H176.696C179.102 57.7528 181.507 58.9298 181.507 61.5194C181.507 62.8848 180.834 65.239 176.263 65.4744C174.828 65.3356 173.443 64.8827 172.21 64.1492C170.978 63.4157 169.93 62.4204 169.144 61.2369L164.092 64.2503C165.353 66.309 167.107 68.0365 169.202 69.2834C171.297 70.5303 173.671 71.2591 176.119 71.4069H176.696C178.086 71.5408 179.49 71.3884 180.816 70.9595C182.142 70.5307 183.362 69.8349 184.396 68.9168C185.431 67.9988 186.258 66.8789 186.824 65.6292C187.39 64.3795 187.683 63.0276 187.683 61.6607C187.683 60.2937 187.39 58.9419 186.824 57.6922C186.258 56.4425 185.431 55.3226 184.396 54.4046C183.362 53.4865 182.142 52.7907 180.816 52.3618C179.49 51.9329 178.086 51.7805 176.696 51.9144L176.6 51.8674ZM175.782 17.8261C175.782 16.3455 175.334 14.8981 174.493 13.667C173.653 12.4359 172.458 11.4763 171.061 10.9097C169.663 10.3431 168.125 10.1948 166.641 10.4837C165.157 10.7726 163.794 11.4855 162.725 12.5325C161.655 13.5795 160.926 14.9134 160.631 16.3656C160.336 17.8178 160.488 19.323 161.067 20.691C161.646 22.0589 162.626 23.2281 163.884 24.0507C165.142 24.8733 166.621 25.3123 168.133 25.3123C169.138 25.3123 170.132 25.1187 171.061 24.7425C171.989 24.3663 172.832 23.8148 173.542 23.1197C174.252 22.4245 174.816 21.5992 175.2 20.691C175.585 19.7827 175.782 18.8092 175.782 17.8261ZM163.515 17.8261C163.515 16.8949 163.797 15.9846 164.326 15.2103C164.854 14.436 165.606 13.8325 166.485 13.4762C167.364 13.1198 168.331 13.0266 169.264 13.2082C170.198 13.3899 171.055 13.8383 171.727 14.4968C172.4 15.1553 172.858 15.9942 173.044 16.9075C173.23 17.8209 173.134 18.7676 172.77 19.6279C172.406 20.4882 171.79 21.2236 170.998 21.7409C170.207 22.2583 169.277 22.5344 168.326 22.5344C167.69 22.5407 167.059 22.4235 166.47 22.1896C165.881 21.9558 165.345 21.61 164.893 21.1722C164.441 20.7343 164.083 20.2132 163.838 19.6388C163.593 19.0645 163.467 18.4484 163.467 17.8261H163.515Z" fill="white"/>
<path d="M180.112 19.5211H184.104V16.6019H180.112V13.259H185.115V10.3398H177.129V24.3236H180.112V19.5211Z" fill="white"/>
</svg>
