<svg width="97" height="97" viewBox="0 0 97 97" fill="none" xmlns="http://www.w3.org/2000/svg">
<path d="M48.1352 20.5824C54.2021 20.5887 60.096 22.6001 64.8955 26.3024L72.6942 18.5224C65.7974 12.7964 57.108 9.66113 48.1352 9.66113C39.1624 9.66113 30.473 12.7964 23.5762 18.5224L31.3749 26.3024C36.1744 22.6001 42.0683 20.5887 48.1352 20.5824Z" fill="white"/>
<path d="M75.802 21.4219L68.0634 29.1619C72.232 33.513 74.8375 39.1197 75.4723 45.105C76.1071 51.0904 74.7354 57.1169 71.5719 62.2419L56.9768 48.0019L49.9399 32.0019V55.1819L64.7354 69.8019C59.9734 73.4477 54.1383 75.424 48.1355 75.424C42.1327 75.424 36.2977 73.4477 31.5356 69.8019L46.3312 55.1819V32.0019L39.2943 48.0019L24.6992 62.2419C21.5356 57.1169 20.164 51.0904 20.7988 45.105C21.4336 39.1197 24.039 33.513 28.2076 29.1619L20.469 21.4219C15.2344 26.8378 11.7127 33.6704 10.3427 41.0687C8.9726 48.4669 9.81472 56.1038 12.7641 63.028C15.7135 69.9523 20.6398 75.8578 26.9294 80.0091C33.2191 84.1603 40.594 86.3738 48.1355 86.3738C55.6771 86.3738 63.052 84.1603 69.3416 80.0091C75.6312 75.8578 80.5575 69.9523 83.5069 63.028C86.4563 56.1038 87.2985 48.4669 85.9284 41.0687C84.5583 33.6704 81.0367 26.8378 75.802 21.4219Z" fill="white"/>
</svg>
