<svg width="97" height="97" viewBox="0 0 97 97" fill="none" xmlns="http://www.w3.org/2000/svg">
<path d="M20.0841 11.5225C14.3482 11.5225 9.68359 16.1775 9.68359 21.9014C9.68359 27.6236 14.3482 32.2804 20.0841 32.2804C25.8201 32.2804 30.4881 27.6236 30.4881 21.9014C30.4881 16.1775 25.8201 11.5225 20.0841 11.5225ZM49.5781 15.2136C43.4225 15.2626 37.9153 15.7486 32.9537 16.6401C33.6243 18.2655 33.9995 20.0378 33.9995 21.9014C33.9995 24.7774 33.1176 27.4545 31.6094 29.6737C31.706 29.6842 31.8592 29.7142 31.9558 29.8105C31.9558 29.0889 32.3879 29.0887 32.3879 29.0887C32.3879 29.0887 32.3879 28.9416 32.5319 28.9416C33.2552 29.087 35.284 30.0963 36.153 30.5289C37.0221 30.9615 37.024 31.107 37.024 31.107C37.024 31.107 39.0508 31.1087 39.6302 30.9634C40.2096 30.9634 41.2234 30.5288 42.6718 30.0945C44.1203 29.6618 44.4087 29.5197 44.6984 29.5197C44.9881 29.5197 47.5966 29.6635 49.9141 29.9508C52.2317 30.2398 54.4029 31.1054 54.8384 31.3944L55.5619 31.5381L55.7059 31.107L54.5469 30.6726C54.5469 30.6726 54.6943 29.9525 54.6943 29.8071C54.6943 29.6635 54.8367 29.5197 54.9824 29.5197C55.1264 29.5197 56.4313 29.8072 56.865 29.9508C57.2986 30.0961 58.7493 31.107 58.895 31.107C59.0407 31.107 59.039 31.2507 59.039 31.2507C59.039 31.5397 58.751 32.1162 58.751 32.1162C58.751 32.1162 59.1848 32.2616 59.3305 32.407C59.4762 32.5506 59.9085 32.8381 60.3421 33.2725C60.7758 33.5615 60.6302 33.9943 60.6302 33.9943L61.6452 35.0068V35.4379L64.1073 37.8941V38.0378L62.9483 38.7596C62.9483 38.7596 64.5396 38.6143 65.6984 39.1906C66.8572 39.7686 67.0015 40.0579 67.0015 40.3468C66.7118 40.4905 66.2779 40.6376 66.2779 40.6376C65.4089 40.9266 63.2363 42.372 63.2363 42.372V42.5157L64.3953 42.803C65.6981 41.6471 68.0169 41.2141 69.7551 41.5031C73.8512 42.3 77.0371 44.4167 78.928 46.7234C80.3852 48.5011 81.4926 50.158 82.2405 51.3963C87.4796 37.3371 86.6251 25.0351 86.6058 24.8092L86.5338 23.954L85.8171 23.4853C77.5021 18.0399 66.01 15.3362 50.6685 15.2136H49.5781ZM32.2438 29.5197C32.2438 29.5197 32.1016 29.9509 32.0998 30.5289C34.4174 30.8179 34.85 31.2507 34.85 31.2507C34.85 31.2507 35.7194 31.107 36.153 31.107C35.4314 30.529 32.2438 29.5197 32.2438 29.5197ZM43.6868 29.8071C43.5429 29.8088 39.7776 31.107 39.7776 31.107C39.7776 31.107 40.791 31.6852 40.9367 31.6852C41.0806 31.6852 43.1092 32.4088 43.9783 32.6977C44.7017 32.9867 45.1374 32.6977 45.2814 32.6977C45.4271 32.6977 47.8875 31.2507 47.8875 31.2507C45.7157 30.3837 43.6868 29.8071 43.6868 29.8071ZM31.2322 30.5289L31.0882 30.9634V30.8197C30.9811 30.7934 30.9036 30.7656 30.807 30.7376C30.1925 31.4767 29.4993 32.1483 28.7461 32.7491C28.7057 33.3376 28.6261 34.5058 28.6261 34.7195C28.4821 35.0085 28.9142 35.1539 28.9142 35.1539L28.7701 36.7412H29.6377L29.7817 35.7321V36.3102H29.9292V35.4413H29.7817V34.8632L31.0848 35.585L31.2322 35.8758L31.5203 36.1631H31.8118L31.9558 36.0194V35.8758C31.0867 35.8758 31.0882 35.4413 31.0882 35.4413C31.0882 35.4413 31.2323 34.4304 31.3763 34.1414C31.522 33.8524 32.0998 33.9977 32.0998 33.9977L31.9558 33.854H31.6677C31.378 33.7086 30.5069 33.1305 30.2172 32.9851V32.8414L30.3612 32.6977V32.1196H30.5087C30.5087 31.9742 30.6527 31.9725 30.6527 31.8288C30.9424 31.8288 33.1148 31.3978 33.1148 31.3978L33.0257 31.3773C33.3628 31.3388 33.9824 31.2507 33.9824 31.2507L31.2322 30.5289ZM49.05 31.5415C48.7603 31.5415 48.6145 31.6886 48.6145 31.6886C48.6145 31.6886 47.7467 32.2651 47.0234 32.6977C46.3 33.1304 46.1558 33.2777 46.0118 33.5667C45.8661 33.712 46.2998 34.2885 46.2998 34.2885L47.4589 35.7321C47.6028 35.7321 48.0384 36.0228 48.0384 36.0228C48.0384 36.0228 50.3551 35.8774 51.8036 35.7321H55.5653C55.7111 35.7321 55.5636 35.1538 55.2739 34.4321C54.9842 33.8541 54.5503 32.4104 54.5503 32.4104C54.4063 32.1214 54.1178 32.1213 52.3797 31.8323C50.7872 31.6869 49.3397 31.5415 49.05 31.5415ZM41.0807 32.8414C40.9999 32.8414 40.8789 32.9347 40.7824 33.0398L40.5012 33.1322L40.3537 34.1414H40.5012L40.7892 33.9977C40.7892 33.9977 40.9368 33.996 41.2247 34.1414C41.5144 34.1414 41.6568 33.8522 41.6568 33.5632C41.6568 33.1411 41.2492 32.9955 41.2282 32.9885C41.1807 32.8589 41.0807 32.8414 41.0807 32.8414ZM28.2523 33.1185C27.8696 33.397 27.4749 33.6534 27.0658 33.8916C27.1361 34.1281 27.323 34.1414 27.323 34.1414L27.179 35.7321H28.1906V35.5884H28.0466V35.4413H27.9026L28.0466 35.1539L28.1906 34.4321L28.0466 34.285V33.9977L28.1906 33.854L28.2523 33.1185ZM42.8193 33.4196V34.5758C42.8193 34.5758 44.4109 34.5776 46.5844 35.0103C45.136 33.9997 42.8193 33.4196 42.8193 33.4196ZM56.4329 33.7103L55.7094 33.9977L56.5804 35.5884L59.478 36.5976C58.3174 34.1437 56.4329 33.7103 56.4329 33.7103ZM26.8292 34.0422C24.8312 35.1509 22.5315 35.7868 20.0876 35.7868C17.9105 35.7868 15.8545 35.2724 14.018 34.3774C14.3376 37.2866 14.8842 40.6879 15.8217 44.3801C16.4713 46.9373 18.3985 48.9743 20.8934 49.8501C23.6622 50.8204 27.0111 51.5765 29.9326 52.0634C43.427 54.2125 56.4738 62.7391 60.9491 70.2215C60.9491 70.2215 61.449 71.1311 61.628 71.5111C62.6973 73.6462 63.2279 75.7755 63.1471 77.6619C70.5668 71.9397 75.6708 65.1699 79.1612 58.4091C78.7468 54.7835 74.93 54.0817 73.3797 54.0817C70.3388 54.0817 67.2941 53.0736 65.1223 50.4727V50.6163C63.8196 52.3503 62.372 52.3507 61.7926 52.3507C61.2133 52.3507 59.3321 51.4833 58.607 50.6163C57.8836 49.7494 57.8834 48.1602 57.8834 48.1602L54.9858 47.151L51.3647 45.1258L50.7851 44.9822C49.6264 45.5601 48.1787 45.129 46.8759 44.1167C46.7302 44.6947 46.0064 46.1386 45.1374 46.8602C44.2683 47.5818 42.5309 48.5946 41.2282 48.5946C39.9254 48.5946 37.029 47.1488 36.1599 45.1258C35.2908 43.1029 36.1599 40.9352 36.1599 40.9352L34.7094 40.6479L34.1299 39.9261C34.1299 39.9261 32.3942 41.3696 30.5121 40.7916C28.63 40.2136 27.0331 38.6275 26.5995 37.1825C26.3098 35.7375 26.7452 34.4373 26.891 34.2919C26.8629 34.1955 26.8521 34.1297 26.8292 34.0422ZM38.2962 34.3774C38.1876 34.3956 38.1865 34.4321 38.1865 34.4321C40.648 35.0101 41.3722 35.1522 41.5162 35.2976C41.5162 35.2976 41.6637 35.5885 41.8077 35.7321C39.7798 35.2995 37.8984 35.5885 37.463 35.7321C37.7527 36.1647 37.7527 36.7413 37.463 37.1757C37.1733 37.4647 36.3039 37.8975 36.3039 37.8975H36.0124L35.2889 37.7504C34.6358 37.6208 34.8062 36.5579 34.8465 36.3513C34.822 36.5317 34.8183 36.7115 34.8534 36.8849C34.9991 37.6065 35.1433 37.6067 35.5769 37.6067C34.8536 37.3177 34.9976 36.1629 35.5769 35.4413C36.0106 34.8633 36.4479 35.2942 36.4479 35.2942C36.4479 35.2942 36.0124 34.7178 35.5769 35.0068C35.2557 35.2205 34.9378 35.7516 34.85 36.3068L33.9824 36.5941C33.6927 36.0161 32.3913 34.4287 32.3913 34.4287L32.0998 35.585C32.2438 35.7286 32.9709 36.8833 33.1148 37.1723L32.6793 37.6033C32.6793 37.6033 32.5353 37.8941 32.5353 38.0378C32.5353 38.1831 32.3913 38.3251 32.3913 38.3251L31.8118 38.6159H31.6677L29.6411 37.032V38.1883H29.7851C29.9309 38.4773 30.2191 39.0555 30.9442 39.3445C31.5236 39.6335 32.2456 39.6336 32.5353 39.4882C32.825 39.6336 32.9691 39.6319 33.1148 39.7756C33.6942 40.0646 33.8384 39.9227 33.8384 39.9227L34.7059 39.6319H34.8534L34.9974 39.4882L35.2889 38.9101C35.2889 38.9101 36.7361 39.0538 37.3155 39.0538C37.8949 38.1868 39.7762 36.8866 41.0807 36.7412C42.3834 36.7412 44.5582 37.029 46.2964 38.763C47.8888 40.497 47.4554 42.8099 47.4554 42.8099L50.6411 43.8259L49.1906 42.8133C48.0318 39.9233 45.2814 37.3194 45.2814 37.3194C45.2814 37.3194 44.5578 37.1757 44.1223 37.1757C43.6887 37.0303 43.3988 36.7447 43.3988 36.7447C43.3988 36.7447 43.2547 36.6009 42.9667 36.1665L42.6752 35.5884C42.6752 35.5884 42.3854 35.2993 41.9517 35.0103C41.518 34.7213 39.9266 34.5775 39.0575 34.4321C38.623 34.3594 38.4049 34.3592 38.2962 34.3774ZM31.5237 36.1665L31.2322 36.3102V37.4665L31.5237 37.3194V36.1665ZM51.1829 36.601C49.3366 36.601 48.179 36.7447 48.179 36.7447C49.0481 37.7553 49.9176 39.2009 49.9176 39.2009C51.3643 37.7559 54.4055 37.1774 58.3155 37.3228C55.5634 36.7448 53.0293 36.601 51.1829 36.601ZM46.0049 37.4665C46.874 38.0445 48.179 39.6319 48.179 39.6319L48.6111 39.7756L49.4821 39.6319C47.8896 37.6089 46.0049 37.4665 46.0049 37.4665ZM61.7892 37.9009C61.7892 37.9009 61.5011 38.4791 61.3571 38.6227C61.2132 38.7663 60.198 38.9101 59.6186 39.0538C59.0392 39.3428 58.0257 39.7756 57.736 40.0663C57.5903 40.21 57.592 40.6445 57.592 40.7881C57.592 40.7881 57.6855 40.8351 57.7908 40.8737C57.7628 40.8456 57.736 40.8162 57.736 40.7881V40.3571C57.736 40.3571 59.6193 38.9101 62.5162 38.9101L62.9483 38.0446L61.7892 37.9009ZM57.7908 40.8737C57.8347 40.9175 57.8938 40.9601 57.9623 40.9934L58.0275 40.9352C57.9642 40.9352 57.8734 40.9034 57.7908 40.8737ZM57.9623 40.9934L56.721 42.0915L57.0124 42.3789L60.1981 43.3914C60.9232 42.8134 61.9367 42.6696 61.9367 42.6696C61.3573 42.3806 58.8966 41.3679 58.1715 41.0789C58.1715 41.0789 58.0676 41.0459 57.9623 40.9934ZM43.8309 39.9227C42.2384 39.779 41.0807 41.2226 41.0807 41.2226L42.2397 42.0915L42.5278 41.9444L43.8309 39.9227ZM44.5578 40.21L43.3988 42.2352L43.5428 42.3789L45.8609 42.5225C45.8627 40.9339 44.5578 40.21 44.5578 40.21ZM40.5012 42.0915C39.4881 43.9691 40.2097 45.2695 40.2097 45.2695L41.5128 43.3914V43.1041L40.5012 42.0915ZM56.1449 42.5225L53.6793 44.6914L55.5653 45.2695L57.4479 43.2478L56.4329 42.8133L56.1449 42.5225ZM66.6174 42.8236C65.9789 42.8562 65.3775 42.9917 64.8343 43.2443C64.98 43.3897 65.1224 43.3915 65.2663 43.5351C66.1354 44.1131 66.5711 44.4009 66.7169 45.7005C66.8608 46.7111 66.5692 48.1553 65.8459 49.4567C69.9033 52.203 75.5526 50.037 77.7244 52.2036C77.3449 47.3991 71.087 42.5952 66.6174 42.8236ZM45.7169 43.5351L43.3988 43.6822L43.2513 43.8259L43.9749 46.1384C45.4251 45.1243 45.7169 43.5351 45.7169 43.5351ZM58.607 43.6788L56.5769 45.9913L58.0275 46.4223C58.3171 45.2681 59.4745 43.9696 59.4745 43.9696L58.607 43.6788ZM41.9483 44.2603L40.5012 45.9913C41.516 46.8565 43.1073 46.4258 43.1073 46.4258L42.2397 44.2603H41.9483ZM64.5428 45.2695C63.9634 45.2695 62.9517 46.5694 62.9517 46.5694L63.2397 47.0005L63.3838 46.8568L64.5428 45.4132V45.2695ZM65.2698 45.4132L64.1107 47.0005V47.1476H65.7018C65.9915 46.137 65.2698 45.4132 65.2698 45.4132ZM62.5162 47.2912C61.7928 48.7362 61.9367 49.7474 61.9367 49.7474L62.6602 48.1567V47.8694C62.8042 47.8694 62.6619 47.5802 62.5162 47.2912ZM65.7018 48.0131L63.9633 48.1602L63.8193 48.3038L64.2513 50.1819C64.2531 50.1801 64.6887 49.7473 65.1223 49.1693C65.556 48.5913 65.7018 48.0131 65.7018 48.0131ZM62.9517 48.882L62.0807 50.4693L62.2281 50.6163C62.9515 50.9053 63.6752 50.6163 63.6752 50.6163L63.0957 48.882H62.9517ZM24.3911 56.3805C23.3251 56.3914 21.862 56.5902 20.8797 58.0089C25.9362 67.9942 34.4544 78.0578 48.7722 84.7363L50.1576 85.3828L51.4127 84.7773C54.7766 83.208 57.8069 81.4419 60.5616 79.5468C61.7151 77.9249 61.8408 75.3812 60.6645 72.7837C60.5556 72.5367 60.0352 71.5882 59.8895 71.364C55.3088 64.302 39.9374 56.9302 25.293 56.3942C25.0582 56.3942 24.7465 56.3769 24.3911 56.3805Z" fill="white"/>
</svg>
