<svg width="20" height="20" viewBox="0 0 20 20" fill="none" xmlns="http://www.w3.org/2000/svg">
<path fill-rule="evenodd" clip-rule="evenodd" d="M13.964 12.6598L18.8956 17.5915C19.069 17.7649 19.1663 18.0001 19.1662 18.2454C19.1661 18.4906 19.0686 18.7257 18.8952 18.8991C18.7217 19.0724 18.4865 19.1698 18.2413 19.1697C17.996 19.1696 17.7609 19.0721 17.5875 18.8986L12.6559 13.967C11.1816 15.1088 9.32772 15.6462 7.47133 15.4697C5.61494 15.2932 3.89551 14.4161 2.66282 13.0169C1.43013 11.6177 0.776788 9.80145 0.835695 7.93762C0.894601 6.07379 1.66134 4.30241 2.97992 2.98382C4.2985 1.66524 6.06989 0.898507 7.93371 0.839601C9.79754 0.780695 11.6138 1.43404 13.013 2.66673C14.4122 3.89942 15.2893 5.61885 15.4658 7.47524C15.6423 9.33162 15.1049 11.1855 13.963 12.6598H13.964ZM8.16605 13.669C9.62474 13.669 11.0237 13.0896 12.0551 12.0581C13.0866 11.0267 13.666 9.62773 13.666 8.16904C13.666 6.71035 13.0866 5.3114 12.0551 4.27995C11.0237 3.2485 9.62474 2.66904 8.16605 2.66904C6.70736 2.66904 5.30841 3.2485 4.27696 4.27995C3.24551 5.3114 2.66605 6.71035 2.66605 8.16904C2.66605 9.62773 3.24551 11.0267 4.27696 12.0581C5.30841 13.0896 6.70736 13.669 8.16605 13.669Z" fill="white"/>
</svg>
