<svg width="928" height="809" viewBox="0 0 928 809" fill="none" xmlns="http://www.w3.org/2000/svg">
<g clip-path="url(#clip0_1770_18680)">
<path d="M844.22 105L544 630H914.806C934.806 568.82 944.999 504.806 945 440.379C945.026 320.977 909.951 204.255 844.22 105Z" fill="#3E3E4B" fill-opacity="0.26"/>
<path d="M792 35.3869C735.445 -28.9929 666.058 -80.4964 588.414 -115.727C510.771 -150.957 426.636 -169.114 341.559 -168.999C329.039 -168.999 316.52 -168.999 304 -167.65L605.937 362L792 35.3869Z" fill="#3E3E4B" fill-opacity="0.26"/>
<path d="M-229.329 252C-249.161 313.354 -259.177 377.518 -258.998 442.067C-259.141 561.605 -224.25 678.504 -158.733 778L141 252H-229.329Z" fill="#3E3E4B" fill-opacity="0.26"/>
<path d="M465.619 1038C554.816 1019.16 638.625 980.123 710.744 923.831C782.863 867.539 841.416 795.456 882 713H280L465.619 1038Z" fill="#3E3E4B" fill-opacity="0.26"/>
<path d="M218.749 -156C129.473 -137.158 45.5904 -98.1232 -26.5928 -41.8314C-98.7759 14.4603 -157.381 86.5443 -198 169H404L218.749 -156Z" fill="#3E3E4B" fill-opacity="0.26"/>
<path d="M-107 848.176C-50.6969 912.684 18.3835 964.292 95.6855 999.597C172.987 1034.9 256.755 1053.1 341.462 1053C354.727 1053 366.532 1053 379 1051.65L78.3008 521L-107 848.176Z" fill="#3E3E4B" fill-opacity="0.26"/>
</g>
<defs>
<clipPath id="clip0_1770_18680">
<rect width="928" height="809" fill="white"/>
</clipPath>
</defs>
</svg>
