<svg width="97" height="97" viewBox="0 0 97 97" fill="none" xmlns="http://www.w3.org/2000/svg">
<path d="M13.4941 16.0153C13.0287 15.4376 12.2448 15.2142 11.5485 15.4603C10.8468 15.7046 10.3779 16.3644 10.3779 17.1062V48.5244C10.3779 48.9294 10.5197 49.3221 10.7769 49.6345L35.2721 79.3072C35.6045 79.7087 36.0997 79.9426 36.6228 79.9426H61.1181C61.79 79.9426 62.4041 79.5568 62.6945 78.9547C62.9867 78.349 62.9045 77.6316 62.4828 77.1062L13.4941 16.0153ZM86.2012 17.2092C85.5083 16.9544 84.728 17.1743 84.2591 17.7486L52.7652 56.1486C52.3365 56.6704 52.2491 57.3913 52.5377 58.0022C52.8282 58.6079 53.4441 58.9971 54.1194 58.9971H78.6147C79.1466 58.9971 79.6487 58.7563 79.9812 58.3426L86.9798 49.6153C87.2283 49.3046 87.363 48.9224 87.363 48.5244V18.8517C87.363 18.1134 86.8976 17.4553 86.2012 17.2092Z" fill="white"/>
</svg>
