<svg width="16" height="16" viewBox="0 0 16 16" fill="none" xmlns="http://www.w3.org/2000/svg">
<path d="M8 0.5C3.8645 0.5 0.5 3.8645 0.5 8C0.5 12.1355 3.8645 15.5 8 15.5C12.1355 15.5 15.5 12.1355 15.5 8C15.5 3.8645 12.1355 0.5 8 0.5ZM2 8C2 7.32575 2.117 6.6785 2.32325 6.07325L3.5 7.25L5 8.75V10.25L6.5 11.75L7.25 12.5V13.9482C4.29575 13.577 2 11.054 2 8ZM12.7475 11.6547C12.2577 11.2602 11.5153 11 11 11V10.25C11 9.85218 10.842 9.47064 10.5607 9.18934C10.2794 8.90804 9.89782 8.75 9.5 8.75H6.5V6.5C6.89782 6.5 7.27936 6.34196 7.56066 6.06066C7.84196 5.77936 8 5.39782 8 5V4.25H8.75C9.14782 4.25 9.52936 4.09196 9.81066 3.81066C10.092 3.52936 10.25 3.14782 10.25 2.75V2.44175C12.446 3.3335 14 5.4875 14 8C13.9999 9.32352 13.5592 10.6094 12.7475 11.6547Z" fill="white"/>
</svg>
