<svg width="14" height="14" viewBox="0 0 14 14" fill="none" xmlns="http://www.w3.org/2000/svg">
<path fill-rule="evenodd" clip-rule="evenodd" d="M6.83505 0.963302C7.21873 1.35903 7.21873 2.00064 6.83505 2.39637L3.35432 5.9865H13.0175C13.5601 5.9865 14 6.44019 14 6.99984C14 7.55949 13.5601 8.01317 13.0175 8.01317H3.35432L6.83505 11.6033C7.21873 11.999 7.21873 12.6406 6.83505 13.0364C6.45138 13.4321 5.82932 13.4321 5.44565 13.0364L0.287755 7.71637C0.19356 7.61922 0.122491 7.50724 0.0745476 7.38773C0.0265121 7.26825 0 7.13724 0 6.99984C0 6.86244 0.0265121 6.73143 0.0745476 6.61195C0.122491 6.49243 0.19356 6.38046 0.287755 6.2833L5.44565 0.963302C5.82932 0.567571 6.45138 0.567571 6.83505 0.963302Z" fill="white"/>
</svg>
