<svg width="24" height="26" viewBox="0 0 24 26" fill="none" xmlns="http://www.w3.org/2000/svg">
<path d="M12 25.5C12.7741 25.501 13.5293 25.2607 14.1606 24.8127C14.7919 24.3647 15.2679 23.7311 15.5225 23H8.4775C8.73208 23.7311 9.2081 24.3647 9.83939 24.8127C10.4707 25.2607 11.2259 25.501 12 25.5ZM20.75 16.2325V10.5C20.75 6.47875 18.0188 3.09125 14.3188 2.0725C13.9525 1.15 13.0575 0.5 12 0.5C10.9425 0.5 10.0475 1.15 9.68125 2.0725C5.98125 3.0925 3.25 6.47875 3.25 10.5V16.2325L1.11625 18.3662C0.999948 18.4821 0.907713 18.6199 0.844857 18.7715C0.782 18.9232 0.749763 19.0858 0.750001 19.25V20.5C0.750001 20.8315 0.881697 21.1495 1.11612 21.3839C1.35054 21.6183 1.66848 21.75 2 21.75H22C22.3315 21.75 22.6495 21.6183 22.8839 21.3839C23.1183 21.1495 23.25 20.8315 23.25 20.5V19.25C23.2502 19.0858 23.218 18.9232 23.1551 18.7715C23.0923 18.6199 23.0001 18.4821 22.8838 18.3662L20.75 16.2325Z" fill="white"/>
</svg>
