<svg width="20" height="20" viewBox="0 0 20 20" fill="none" xmlns="http://www.w3.org/2000/svg">
<path d="M1.3405 1.33659C1.66867 1.00852 2.11371 0.824219 2.57775 0.824219C3.04179 0.824219 3.48683 1.00852 3.815 1.33659L10.003 7.5246L16.191 1.33659C16.5211 1.01782 16.9631 0.841428 17.422 0.845415C17.8808 0.849403 18.3197 1.03345 18.6442 1.35791C18.9686 1.68238 19.1527 2.1213 19.1567 2.58014C19.1607 3.03899 18.9843 3.48104 18.6655 3.8111L12.4775 9.9991L18.6655 16.1871C18.9843 16.5171 19.1607 16.9592 19.1567 17.418C19.1527 17.8769 18.9686 18.3158 18.6442 18.6403C18.3197 18.9647 17.8808 19.1488 17.422 19.1528C16.9631 19.1568 16.5211 18.9804 16.191 18.6616L10.003 12.4736L3.815 18.6616C3.48495 18.9804 3.04289 19.1568 2.58405 19.1528C2.12521 19.1488 1.68628 18.9647 1.36182 18.6403C1.03735 18.3158 0.853309 17.8769 0.849322 17.418C0.845334 16.9592 1.02172 16.5171 1.3405 16.1871L7.5285 9.9991L1.3405 3.8111C1.01243 3.48292 0.828125 3.03788 0.828125 2.57385C0.828125 2.10981 1.01243 1.66477 1.3405 1.33659Z" fill="#9496A0"/>
</svg>
