<svg width="22" height="20" viewBox="0 0 22 20" fill="none" xmlns="http://www.w3.org/2000/svg">
<path d="M8.7994 12.2283H13.1992V5.55834H16.4991L10.9993 0L5.49952 5.55834H8.7994V12.2283ZM21.2708 13.9314C21.0398 13.6824 19.4987 12.016 19.0587 11.5813C18.7504 11.2826 18.3397 11.1161 17.9126 11.1167H15.98L19.3502 14.445H15.452C15.399 14.444 15.3467 14.4572 15.3003 14.4831C15.254 14.5091 15.2152 14.5469 15.188 14.5929L14.2904 16.675H7.70824L6.81067 14.5929C6.78325 14.5471 6.74445 14.5094 6.69814 14.4834C6.65184 14.4575 6.59962 14.4442 6.54668 14.445H2.64842L6.0176 11.1167H4.08607C3.64938 11.1167 3.2325 11.2934 2.93991 11.5813C2.49992 12.0171 0.958877 13.6835 0.727885 13.9314C0.190004 14.5106 -0.105886 14.9719 0.0349093 15.5422L0.651988 18.9595C0.792783 19.5309 1.41206 20 2.02914 20H19.9717C20.5888 20 21.2081 19.5309 21.3489 18.9595L21.9659 15.5422C22.1045 14.9719 21.8097 14.5106 21.2708 13.9314Z" fill="white"/>
</svg>
