<svg width="12" height="20" viewBox="0 0 12 20" fill="none" xmlns="http://www.w3.org/2000/svg">
<path d="M11.0613 0.454805C11.3425 0.736096 11.5005 1.11756 11.5005 1.5153C11.5005 1.91305 11.3425 2.29451 11.0613 2.5758L3.6363 10.0008L11.0613 17.4258C11.3345 17.7087 11.4857 18.0876 11.4823 18.4809C11.4789 18.8742 11.3211 19.2504 11.043 19.5285C10.7649 19.8066 10.3887 19.9644 9.99541 19.9678C9.60211 19.9712 9.22321 19.82 8.9403 19.5468L0.454805 11.0613C0.173598 10.78 0.015625 10.3986 0.015625 10.0008C0.015625 9.60306 0.173598 9.2216 0.454805 8.94031L8.9403 0.454805C9.2216 0.173598 9.60306 0.015625 10.0008 0.015625C10.3986 0.015625 10.78 0.173598 11.0613 0.454805Z" fill="white"/>
</svg>
