<svg width="22" height="22" viewBox="0 0 22 22" fill="none" xmlns="http://www.w3.org/2000/svg">
<path d="M10.8223 13.1875C10.8223 13.306 10.7767 13.4108 10.6855 13.502L6.14648 18.041L8.11523 20.0098C8.28841 20.1829 8.375 20.388 8.375 20.625C8.375 20.862 8.28841 21.0671 8.11523 21.2402C7.94206 21.4134 7.73698 21.5 7.5 21.5H1.375C1.13802 21.5 0.932943 21.4134 0.759766 21.2402C0.586589 21.0671 0.5 20.862 0.5 20.625V14.5C0.5 14.263 0.586589 14.0579 0.759766 13.8848C0.932943 13.7116 1.13802 13.625 1.375 13.625C1.61198 13.625 1.81706 13.7116 1.99023 13.8848L3.95898 15.8535L8.49805 11.3145C8.58919 11.2233 8.69401 11.1777 8.8125 11.1777C8.93099 11.1777 9.03581 11.2233 9.12695 11.3145L10.6855 12.873C10.7767 12.9642 10.8223 13.069 10.8223 13.1875ZM21.5 1.375V7.5C21.5 7.73698 21.4134 7.94206 21.2402 8.11523C21.0671 8.28841 20.862 8.375 20.625 8.375C20.388 8.375 20.1829 8.28841 20.0098 8.11523L18.041 6.14648L13.502 10.6855C13.4108 10.7767 13.306 10.8223 13.1875 10.8223C13.069 10.8223 12.9642 10.7767 12.873 10.6855L11.3145 9.12695C11.2233 9.03581 11.1777 8.93099 11.1777 8.8125C11.1777 8.69401 11.2233 8.58919 11.3145 8.49805L15.8535 3.95898L13.8848 1.99023C13.7116 1.81706 13.625 1.61198 13.625 1.375C13.625 1.13802 13.7116 0.932943 13.8848 0.759766C14.0579 0.586589 14.263 0.5 14.5 0.5H20.625C20.862 0.5 21.0671 0.586589 21.2402 0.759766C21.4134 0.932943 21.5 1.13802 21.5 1.375Z" fill="white"/>
</svg>
