<svg width="22" height="18" viewBox="0 0 22 18" fill="none" xmlns="http://www.w3.org/2000/svg">
<path d="M19.4 0.5H2.6C1.44185 0.5 0.5 1.45306 0.5 2.625V15.375C0.5 16.5469 1.44185 17.5 2.6 17.5H19.4C20.5581 17.5 21.5 16.5469 21.5 15.375V2.625C21.5 1.45306 20.5581 0.5 19.4 0.5ZM5.225 3.6875C5.64272 3.6875 6.04332 3.85541 6.33869 4.1543C6.63406 4.45318 6.8 4.85856 6.8 5.28125C6.8 5.70394 6.63406 6.10932 6.33869 6.4082C6.04332 6.70709 5.64272 6.875 5.225 6.875C4.80728 6.875 4.40668 6.70709 4.11131 6.4082C3.81594 6.10932 3.65 5.70394 3.65 5.28125C3.65 4.85856 3.81594 4.45318 4.11131 4.1543C4.40668 3.85541 4.80728 3.6875 5.225 3.6875ZM11 14.3125H3.65L7.85 9L9.425 11.125L12.575 6.875L18.35 14.3125H11Z" fill="#9496A0"/>
</svg>
