<svg width="7" height="14" viewBox="0 0 7 14" fill="none" xmlns="http://www.w3.org/2000/svg">
<path d="M5.82968 13.4165C5.68028 13.417 5.53267 13.3868 5.39769 13.3281C5.26271 13.2694 5.14379 13.1837 5.04968 13.0773L0.219676 7.57735C0.0725937 7.41332 -0.0078125 7.20759 -0.0078125 6.99526C-0.0078125 6.78294 0.0725937 6.5772 0.219676 6.41318L5.21968 0.913179C5.38941 0.725981 5.63333 0.608258 5.89775 0.58591C6.16218 0.563562 6.42546 0.638419 6.62968 0.794012C6.83389 0.949606 6.96232 1.17319 6.9867 1.41558C7.01108 1.65797 6.92941 1.89931 6.75968 2.08651L2.28968 6.99985L6.60967 11.9132C6.73196 12.0477 6.80964 12.2116 6.83351 12.3853C6.85739 12.5591 6.82648 12.7355 6.74442 12.8936C6.66237 13.0518 6.53261 13.1851 6.3705 13.2777C6.20838 13.3704 6.02071 13.4186 5.82968 13.4165Z" fill="white"/>
</svg>
