<svg width="20" height="20" viewBox="0 0 20 20" fill="none" xmlns="http://www.w3.org/2000/svg">
<path fill-rule="evenodd" clip-rule="evenodd" d="M13.964 12.6578L18.8956 17.5895C19.069 17.763 19.1663 17.9982 19.1662 18.2434C19.1661 18.4886 19.0686 18.7238 18.8952 18.8971C18.7217 19.0705 18.4865 19.1678 18.2413 19.1677C17.996 19.1676 17.7609 19.0701 17.5875 18.8967L12.6559 13.965C11.1816 15.1069 9.32772 15.6442 7.47133 15.4677C5.61494 15.2913 3.89551 14.4142 2.66282 13.015C1.43013 11.6158 0.776788 9.7995 0.835695 7.93567C0.894601 6.07184 1.66134 4.30046 2.97992 2.98187C4.2985 1.66329 6.06989 0.896554 7.93371 0.837648C9.79754 0.778741 11.6138 1.43209 13.013 2.66478C14.4122 3.89746 15.2893 5.61689 15.4658 7.47328C15.6423 9.32967 15.1049 11.1836 13.963 12.6578H13.964ZM8.16605 13.6671C9.62474 13.6671 11.0237 13.0876 12.0551 12.0562C13.0866 11.0247 13.666 9.62577 13.666 8.16708C13.666 6.70839 13.0866 5.30945 12.0551 4.278C11.0237 3.24655 9.62474 2.66708 8.16605 2.66708C6.70736 2.66708 5.30841 3.24655 4.27696 4.278C3.24551 5.30945 2.66605 6.70839 2.66605 8.16708C2.66605 9.62577 3.24551 11.0247 4.27696 12.0562C5.30841 13.0876 6.70736 13.6671 8.16605 13.6671Z" fill="white"/>
</svg>
