<svg width="14" height="14" viewBox="0 0 14 14" fill="none" xmlns="http://www.w3.org/2000/svg">
<path d="M8.39453 0.0880852C8.08008 0.247453 7.875 0.606813 7.875 1.00055V3.00046H4.8125C2.15469 3.00046 0 5.46286 0 8.50023C0 12.0407 2.22852 13.6219 2.73984 13.9406C2.8082 13.9844 2.88477 14 2.96133 14C3.25938 14 3.5 13.7219 3.5 13.3844C3.5 13.15 3.38242 12.9344 3.23203 12.7751C2.975 12.4969 2.625 11.9501 2.625 11.0001C2.625 9.34395 3.80078 8.00025 5.25 8.00025H7.875V10.0002C7.875 10.3939 8.07734 10.7533 8.39453 10.9126C8.71172 11.072 9.07812 11.0064 9.33516 10.7439L13.7102 6.24408C13.8934 6.05346 14 5.78472 14 5.50036C14 5.21599 13.8961 4.94726 13.7102 4.75664L9.33516 0.256828C9.20978 0.127073 9.05398 0.0419836 8.88688 0.0120071C8.71978 -0.0179694 8.54866 0.00847221 8.39453 0.0880852Z" fill="white"/>
</svg>
