<svg width="20" height="19" viewBox="0 0 20 19" fill="none" xmlns="http://www.w3.org/2000/svg">
<path d="M13 2.24997V17.746C13 18.825 11.726 19.397 10.92 18.68L6.428 14.686C6.29072 14.5642 6.11353 14.4969 5.93 14.497H2.25C1.95453 14.497 1.66194 14.4388 1.38896 14.3257C1.11598 14.2126 0.867941 14.0469 0.65901 13.838C0.450078 13.629 0.284344 13.381 0.171271 13.108C0.058198 12.835 0 12.5424 0 12.247V7.74896C0.00026514 7.1524 0.237435 6.58036 0.659363 6.15862C1.08129 5.73688 1.65344 5.49997 2.25 5.49997H5.93C6.11366 5.49974 6.29086 5.43214 6.428 5.30997L10.919 1.31697C11.726 0.599965 13 1.17197 13 2.24997ZM16.992 3.89796C17.1518 3.77957 17.3521 3.72949 17.5488 3.75875C17.7455 3.788 17.9226 3.89419 18.041 4.05397C19.3164 5.77413 20.0033 7.85957 20 10.001C20.0028 12.1421 19.3155 14.2272 18.04 15.947C17.9203 16.1034 17.744 16.2064 17.549 16.2339C17.354 16.2614 17.156 16.2111 16.9978 16.0938C16.8396 15.9766 16.7338 15.8018 16.7034 15.6072C16.6729 15.4127 16.7202 15.214 16.835 15.054C17.919 13.5925 18.5029 11.8205 18.5 10.001C18.5031 8.18105 17.9192 6.40866 16.835 4.94697C16.7763 4.86775 16.7337 4.77773 16.7099 4.68205C16.686 4.58638 16.6812 4.48693 16.6957 4.38941C16.7103 4.29188 16.744 4.19818 16.7948 4.11368C16.8457 4.02919 16.9127 3.95554 16.992 3.89697V3.89796ZM15.143 6.36997C15.2296 6.323 15.3246 6.29355 15.4226 6.28331C15.5206 6.27306 15.6196 6.28223 15.7141 6.31027C15.8085 6.33832 15.8965 6.38469 15.973 6.44675C16.0495 6.50882 16.1131 6.58534 16.16 6.67197C16.696 7.66197 17 8.79697 17 10.001C17.0017 11.163 16.7129 12.307 16.16 13.329C16.1131 13.4156 16.0496 13.4922 15.9731 13.5544C15.8967 13.6165 15.8087 13.663 15.7143 13.6911C15.6198 13.7192 15.5208 13.7285 15.4227 13.7183C15.3247 13.7082 15.2297 13.6788 15.143 13.632C15.0563 13.5851 14.9797 13.5216 14.9176 13.4451C14.8555 13.3686 14.809 13.2807 14.7809 13.1862C14.7527 13.0918 14.7435 12.9927 14.7536 12.8947C14.7638 12.7967 14.7931 12.7016 14.84 12.615C15.2743 11.8122 15.5011 10.9137 15.5 10.001C15.5 9.05297 15.26 8.16296 14.84 7.38596C14.7455 7.21104 14.7244 7.00576 14.7812 6.81525C14.838 6.62474 14.9682 6.46458 15.143 6.36997Z" fill="#9496A0"/>
</svg>
