<svg width="65" height="58" viewBox="0 0 65 58" fill="none" xmlns="http://www.w3.org/2000/svg">
<g clip-path="url(#clip0_5279_87575)">
<path d="M43.996 20.6279L32 41.2988H46.8164C47.6156 38.89 48.0229 36.3696 48.0229 33.8329C48.024 29.1316 46.6225 24.5359 43.996 20.6279Z" fill="#FF4763"/>
<path d="M41.8923 17.9269C39.6453 15.4143 36.8886 13.4043 33.8038 12.0293C30.719 10.6544 27.3763 9.94575 23.9961 9.95022C23.4987 9.95022 23.0013 9.95022 22.5039 10.0029L34.4999 30.6738L41.8923 17.9269Z" fill="#FF4763"/>
<path d="M1.20885 26.3623C0.416511 28.774 0.0163657 31.2962 0.0235321 33.8335C0.0178169 38.5323 1.41175 43.1275 4.02926 47.0385L16.0041 26.3623H1.20885Z" fill="#FF4763"/>
<path d="M28.8976 57.2092C32.4525 56.4699 35.7926 54.9382 38.6668 52.7295C41.5411 50.5208 43.8746 47.6924 45.4921 44.457H21.5L28.8976 57.2092Z" fill="#FF4763"/>
<path d="M19.1022 10.4502C15.5474 11.1895 12.2073 12.7211 9.33304 14.9299C6.45879 17.1386 4.12523 19.967 2.50781 23.2023H26.4787L19.1022 10.4502Z" fill="#FF4763"/>
<path d="M6.10547 49.7338C8.35161 52.246 11.1075 54.2558 14.1914 55.6308C17.2752 57.0057 20.617 57.7145 23.9963 57.7105C24.5255 57.7105 24.9964 57.7105 25.4938 57.6578L13.4978 36.9922L6.10547 49.7338Z" fill="#FF4763"/>
</g>
<path d="M57.5013 1.66895H52.5013V7.46233H46.668V12.4373H52.5013V18.2307H57.5013V12.4373H63.3346V7.46233H57.5013V1.66895Z" fill="#FF4763"/>
<defs>
<clipPath id="clip0_5279_87575">
<rect width="48" height="47.76" fill="white" transform="translate(0 9.9502)"/>
</clipPath>
</defs>
</svg>
