<svg width="29" height="24" viewBox="0 0 29 24" fill="none" xmlns="http://www.w3.org/2000/svg">
<path d="M28.5534 3.17125C27.5096 3.63375 26.3884 3.94625 25.2096 4.0875C26.4259 3.35975 27.3358 2.21434 27.7696 0.865005C26.627 1.54374 25.3763 2.0215 24.0721 2.2775C23.1951 1.34109 22.0335 0.720412 20.7676 0.511847C19.5016 0.303282 18.2023 0.518494 17.0712 1.12407C15.9401 1.72965 15.0406 2.69171 14.5123 3.86088C13.9841 5.03006 13.8566 6.34094 14.1496 7.59C11.8343 7.47375 9.56918 6.87194 7.50143 5.82364C5.43367 4.77533 3.60945 3.30396 2.14715 1.505C1.64715 2.3675 1.35965 3.3675 1.35965 4.4325C1.35909 5.39125 1.59519 6.33531 2.047 7.18092C2.4988 8.02653 3.15235 8.74755 3.94965 9.28C3.02499 9.25058 2.12074 9.00073 1.31215 8.55125V8.62625C1.31206 9.97093 1.77719 11.2742 2.62863 12.315C3.48006 13.3558 4.66536 14.0699 5.9834 14.3363C5.12563 14.5684 4.22632 14.6026 3.3534 14.4363C3.72527 15.5933 4.44964 16.605 5.42511 17.3299C6.40057 18.0548 7.57829 18.4565 8.7934 18.4788C6.73069 20.098 4.18326 20.9764 1.5609 20.9725C1.09637 20.9726 0.632244 20.9455 0.170898 20.8913C2.83274 22.6027 5.93132 23.511 9.0959 23.5075C19.8084 23.5075 25.6646 14.635 25.6646 6.94C25.6646 6.69 25.6584 6.4375 25.6471 6.1875C26.7863 5.36372 27.7695 4.34362 28.5509 3.175L28.5534 3.17125Z" fill="white"/>
</svg>
