<svg width="18" height="14" viewBox="0 0 18 14" fill="none" xmlns="http://www.w3.org/2000/svg">
<path d="M17.857 12.652L9.75712 0.401953C9.59146 0.151484 9.30628 0 9 0C8.69372 0 8.40854 0.151484 8.24288 0.401953L0.142962 12.652C0.0555514 12.7841 0.00636795 12.9368 0.000577784 13.0938C-0.00521238 13.2509 0.0326045 13.4065 0.110056 13.5445C0.187544 13.6823 0.301791 13.7974 0.440802 13.8776C0.579813 13.9577 0.738458 14 0.90008 14H17.0999C17.4293 14 17.7322 13.8253 17.8899 13.5442C17.9674 13.4063 18.0052 13.2507 17.9994 13.0937C17.9936 12.9367 17.9444 12.7841 17.857 12.652ZM9 2.4932L11.4016 6.125H9L7.20002 7.875L6.12959 6.8343L9 2.4932Z" fill="#9496A0"/>
</svg>
