<svg width="232" height="48" viewBox="0 0 232 48" fill="none" xmlns="http://www.w3.org/2000/svg">
<rect width="232" height="48" rx="4" fill="url(#paint0_linear_1770_19964)"/>
<path d="M49.0604 21.4347H45.8729C45.782 20.9119 45.6143 20.4489 45.37 20.0455C45.1257 19.6364 44.8217 19.2898 44.4581 19.0057C44.0945 18.7216 43.6797 18.5085 43.2138 18.3665C42.7536 18.2188 42.2564 18.1449 41.7223 18.1449C40.7734 18.1449 39.9325 18.3835 39.1996 18.8608C38.4666 19.3324 37.8928 20.0256 37.478 20.9403C37.0632 21.8494 36.8558 22.9602 36.8558 24.2727C36.8558 25.608 37.0632 26.733 37.478 27.6477C37.8984 28.5568 38.4723 29.2443 39.1996 29.7102C39.9325 30.1705 40.7706 30.4006 41.7138 30.4006C42.2365 30.4006 42.7251 30.3324 43.1797 30.196C43.6399 30.054 44.0518 29.8466 44.4155 29.5739C44.7848 29.3011 45.0945 28.9659 45.3445 28.5682C45.6001 28.1705 45.7763 27.7159 45.8729 27.2045L49.0604 27.2216C48.9411 28.0511 48.6825 28.8295 48.2848 29.5568C47.8928 30.2841 47.3786 30.9261 46.7422 31.483C46.1058 32.0341 45.3615 32.4659 44.5092 32.7784C43.657 33.0852 42.7109 33.2386 41.6712 33.2386C40.1371 33.2386 38.7678 32.8835 37.5632 32.1733C36.3587 31.4631 35.4098 30.4375 34.7166 29.0966C34.0234 27.7557 33.6768 26.1477 33.6768 24.2727C33.6768 22.392 34.0263 20.7841 34.7251 19.4489C35.424 18.108 36.3757 17.0824 37.5803 16.3722C38.7848 15.6619 40.1484 15.3068 41.6712 15.3068C42.6428 15.3068 43.5462 15.4432 44.3814 15.7159C45.2166 15.9886 45.9609 16.3892 46.6143 16.9176C47.2678 17.4403 47.8047 18.0824 48.2251 18.8438C48.6513 19.5994 48.9297 20.4631 49.0604 21.4347ZM51.8196 33V19.9091H54.8111V22.0909H54.9474C55.1861 21.3352 55.5952 20.7528 56.1747 20.3438C56.7599 19.929 57.4276 19.7216 58.1776 19.7216C58.348 19.7216 58.5384 19.7301 58.7486 19.7472C58.9645 19.7585 59.1435 19.7784 59.2855 19.8068V22.6449C59.1548 22.5994 58.9474 22.5597 58.6634 22.5256C58.3849 22.4858 58.1151 22.4659 57.8537 22.4659C57.2912 22.4659 56.7855 22.5881 56.3366 22.8324C55.8935 23.071 55.544 23.4034 55.2884 23.8295C55.0327 24.2557 54.9048 24.7472 54.9048 25.304V33H51.8196ZM66.5916 33.2557C65.2791 33.2557 64.1456 32.983 63.1911 32.4375C62.2422 31.8864 61.5121 31.108 61.0007 30.1023C60.4893 29.0909 60.2337 27.9006 60.2337 26.5312C60.2337 25.1847 60.4893 24.0028 61.0007 22.9858C61.5178 21.9631 62.2393 21.1676 63.1655 20.5994C64.0916 20.0256 65.1797 19.7386 66.4297 19.7386C67.2365 19.7386 67.9979 19.8693 68.7138 20.1307C69.4354 20.3864 70.0717 20.7841 70.6229 21.3239C71.1797 21.8636 71.6172 22.5511 71.9354 23.3864C72.2536 24.2159 72.4126 25.2045 72.4126 26.3523V27.2983H61.6825V25.2188H69.4553C69.4496 24.6278 69.3217 24.1023 69.0717 23.642C68.8217 23.1761 68.4723 22.8097 68.0234 22.5426C67.5803 22.2756 67.0632 22.142 66.4723 22.142C65.8416 22.142 65.2876 22.2955 64.8104 22.6023C64.3331 22.9034 63.9609 23.3011 63.6939 23.7955C63.4325 24.2841 63.299 24.821 63.2933 25.4062V27.2216C63.2933 27.983 63.4325 28.6364 63.7109 29.1818C63.9893 29.7216 64.3786 30.1364 64.8786 30.4261C65.3786 30.7102 65.9638 30.8523 66.6342 30.8523C67.0831 30.8523 67.4893 30.7898 67.853 30.6648C68.2166 30.5341 68.532 30.3438 68.799 30.0938C69.0661 29.8438 69.2678 29.5341 69.4041 29.1648L72.2848 29.4886C72.103 30.25 71.7564 30.9148 71.245 31.483C70.7393 32.0455 70.0916 32.483 69.3018 32.7955C68.5121 33.1023 67.6087 33.2557 66.5916 33.2557ZM78.7898 33.2642C77.9602 33.2642 77.2131 33.1165 76.5483 32.821C75.8892 32.5199 75.3665 32.0767 74.9801 31.4915C74.5994 30.9062 74.4091 30.1847 74.4091 29.3267C74.4091 28.5881 74.5455 27.9773 74.8182 27.4943C75.0909 27.0114 75.4631 26.625 75.9347 26.3352C76.4063 26.0455 76.9375 25.8267 77.5284 25.679C78.125 25.5256 78.7415 25.4148 79.3778 25.3466C80.1449 25.267 80.767 25.196 81.2443 25.1335C81.7216 25.0653 82.0682 24.9631 82.2841 24.8267C82.5057 24.6847 82.6165 24.4659 82.6165 24.1705V24.1193C82.6165 23.4773 82.4261 22.9801 82.0455 22.6278C81.6648 22.2756 81.1165 22.0994 80.4006 22.0994C79.6449 22.0994 79.0455 22.2642 78.6023 22.5938C78.1648 22.9233 77.8693 23.3125 77.7159 23.7614L74.8352 23.3523C75.0625 22.5568 75.4375 21.892 75.9602 21.358C76.483 20.8182 77.1222 20.4148 77.8778 20.1477C78.6335 19.875 79.4688 19.7386 80.3835 19.7386C81.0142 19.7386 81.642 19.8125 82.267 19.9602C82.892 20.108 83.4631 20.3523 83.9801 20.6932C84.4972 21.0284 84.9119 21.4858 85.2244 22.0653C85.5426 22.6449 85.7017 23.3693 85.7017 24.2386V33H82.7358V31.2017H82.6335C82.446 31.5653 82.1818 31.9062 81.8409 32.2244C81.5057 32.5369 81.0824 32.7898 80.571 32.983C80.0653 33.1705 79.4716 33.2642 78.7898 33.2642ZM79.5909 30.9972C80.2102 30.9972 80.7472 30.875 81.2017 30.6307C81.6563 30.3807 82.0057 30.0511 82.25 29.642C82.5 29.233 82.625 28.7869 82.625 28.304V26.7614C82.5284 26.8409 82.3636 26.9148 82.1307 26.983C81.9034 27.0511 81.6477 27.1108 81.3636 27.1619C81.0795 27.2131 80.7983 27.2585 80.5199 27.2983C80.2415 27.3381 80 27.3722 79.7955 27.4006C79.3352 27.4631 78.9233 27.5653 78.5597 27.7074C78.196 27.8494 77.9091 28.0483 77.6989 28.304C77.4886 28.554 77.3835 28.8778 77.3835 29.2756C77.3835 29.8438 77.5909 30.2727 78.0057 30.5625C78.4205 30.8523 78.9489 30.9972 79.5909 30.9972ZM95.3409 19.9091V22.2955H87.8153V19.9091H95.3409ZM89.6733 16.7727H92.7585V29.0625C92.7585 29.4773 92.821 29.7955 92.946 30.017C93.0767 30.233 93.2472 30.3807 93.4574 30.4602C93.6676 30.5398 93.9006 30.5795 94.1562 30.5795C94.3494 30.5795 94.5256 30.5653 94.6847 30.5369C94.8494 30.5085 94.9744 30.483 95.0597 30.4602L95.5795 32.8722C95.4148 32.929 95.179 32.9915 94.8722 33.0597C94.571 33.1278 94.2017 33.1676 93.7642 33.179C92.9915 33.2017 92.2955 33.0852 91.6761 32.8295C91.0568 32.5682 90.5653 32.1648 90.2017 31.6193C89.8438 31.0739 89.6676 30.392 89.6733 29.5739V16.7727ZM103.576 33.2557C102.263 33.2557 101.13 32.983 100.175 32.4375C99.2266 31.8864 98.4964 31.108 97.9851 30.1023C97.4737 29.0909 97.218 27.9006 97.218 26.5312C97.218 25.1847 97.4737 24.0028 97.9851 22.9858C98.5021 21.9631 99.2237 21.1676 100.15 20.5994C101.076 20.0256 102.164 19.7386 103.414 19.7386C104.221 19.7386 104.982 19.8693 105.698 20.1307C106.42 20.3864 107.056 20.7841 107.607 21.3239C108.164 21.8636 108.602 22.5511 108.92 23.3864C109.238 24.2159 109.397 25.2045 109.397 26.3523V27.2983H98.6669V25.2188H106.44C106.434 24.6278 106.306 24.1023 106.056 23.642C105.806 23.1761 105.457 22.8097 105.008 22.5426C104.565 22.2756 104.048 22.142 103.457 22.142C102.826 22.142 102.272 22.2955 101.795 22.6023C101.317 22.9034 100.945 23.3011 100.678 23.7955C100.417 24.2841 100.283 24.821 100.278 25.4062V27.2216C100.278 27.983 100.417 28.6364 100.695 29.1818C100.974 29.7216 101.363 30.1364 101.863 30.4261C102.363 30.7102 102.948 30.8523 103.619 30.8523C104.067 30.8523 104.474 30.7898 104.837 30.6648C105.201 30.5341 105.516 30.3438 105.783 30.0938C106.05 29.8438 106.252 29.5341 106.388 29.1648L109.269 29.4886C109.087 30.25 108.741 30.9148 108.229 31.483C107.724 32.0455 107.076 32.483 106.286 32.7955C105.496 33.1023 104.593 33.2557 103.576 33.2557ZM121.727 33.2642C120.898 33.2642 120.151 33.1165 119.486 32.821C118.827 32.5199 118.304 32.0767 117.918 31.4915C117.537 30.9062 117.347 30.1847 117.347 29.3267C117.347 28.5881 117.483 27.9773 117.756 27.4943C118.028 27.0114 118.401 26.625 118.872 26.3352C119.344 26.0455 119.875 25.8267 120.466 25.679C121.063 25.5256 121.679 25.4148 122.315 25.3466C123.082 25.267 123.705 25.196 124.182 25.1335C124.659 25.0653 125.006 24.9631 125.222 24.8267C125.443 24.6847 125.554 24.4659 125.554 24.1705V24.1193C125.554 23.4773 125.364 22.9801 124.983 22.6278C124.602 22.2756 124.054 22.0994 123.338 22.0994C122.582 22.0994 121.983 22.2642 121.54 22.5938C121.102 22.9233 120.807 23.3125 120.653 23.7614L117.773 23.3523C118 22.5568 118.375 21.892 118.898 21.358C119.42 20.8182 120.06 20.4148 120.815 20.1477C121.571 19.875 122.406 19.7386 123.321 19.7386C123.952 19.7386 124.58 19.8125 125.205 19.9602C125.83 20.108 126.401 20.3523 126.918 20.6932C127.435 21.0284 127.849 21.4858 128.162 22.0653C128.48 22.6449 128.639 23.3693 128.639 24.2386V33H125.673V31.2017H125.571C125.384 31.5653 125.119 31.9062 124.778 32.2244C124.443 32.5369 124.02 32.7898 123.509 32.983C123.003 33.1705 122.409 33.2642 121.727 33.2642ZM122.528 30.9972C123.148 30.9972 123.685 30.875 124.139 30.6307C124.594 30.3807 124.943 30.0511 125.188 29.642C125.438 29.233 125.562 28.7869 125.562 28.304V26.7614C125.466 26.8409 125.301 26.9148 125.068 26.983C124.841 27.0511 124.585 27.1108 124.301 27.1619C124.017 27.2131 123.736 27.2585 123.457 27.2983C123.179 27.3381 122.938 27.3722 122.733 27.4006C122.273 27.4631 121.861 27.5653 121.497 27.7074C121.134 27.8494 120.847 28.0483 120.636 28.304C120.426 28.554 120.321 28.8778 120.321 29.2756C120.321 29.8438 120.528 30.2727 120.943 30.5625C121.358 30.8523 121.886 30.9972 122.528 30.9972ZM137.064 18.196V15.5455H150.99V18.196H145.595V33H142.459V18.196H137.064ZM157.435 33.2557C156.123 33.2557 154.989 32.983 154.035 32.4375C153.086 31.8864 152.356 31.108 151.844 30.1023C151.333 29.0909 151.077 27.9006 151.077 26.5312C151.077 25.1847 151.333 24.0028 151.844 22.9858C152.362 21.9631 153.083 21.1676 154.009 20.5994C154.935 20.0256 156.023 19.7386 157.273 19.7386C158.08 19.7386 158.842 19.8693 159.558 20.1307C160.279 20.3864 160.915 20.7841 161.467 21.3239C162.023 21.8636 162.461 22.5511 162.779 23.3864C163.097 24.2159 163.256 25.2045 163.256 26.3523V27.2983H152.526V25.2188H160.299C160.293 24.6278 160.165 24.1023 159.915 23.642C159.665 23.1761 159.316 22.8097 158.867 22.5426C158.424 22.2756 157.907 22.142 157.316 22.142C156.685 22.142 156.131 22.2955 155.654 22.6023C155.177 22.9034 154.805 23.3011 154.538 23.7955C154.276 24.2841 154.143 24.821 154.137 25.4062V27.2216C154.137 27.983 154.276 28.6364 154.555 29.1818C154.833 29.7216 155.222 30.1364 155.722 30.4261C156.222 30.7102 156.808 30.8523 157.478 30.8523C157.927 30.8523 158.333 30.7898 158.697 30.6648C159.06 30.5341 159.376 30.3438 159.643 30.0938C159.91 29.8438 160.112 29.5341 160.248 29.1648L163.129 29.4886C162.947 30.25 162.6 30.9148 162.089 31.483C161.583 32.0455 160.935 32.483 160.146 32.7955C159.356 33.1023 158.452 33.2557 157.435 33.2557ZM169.634 33.2642C168.804 33.2642 168.057 33.1165 167.392 32.821C166.733 32.5199 166.21 32.0767 165.824 31.4915C165.443 30.9062 165.253 30.1847 165.253 29.3267C165.253 28.5881 165.389 27.9773 165.662 27.4943C165.935 27.0114 166.307 26.625 166.778 26.3352C167.25 26.0455 167.781 25.8267 168.372 25.679C168.969 25.5256 169.585 25.4148 170.222 25.3466C170.989 25.267 171.611 25.196 172.088 25.1335C172.565 25.0653 172.912 24.9631 173.128 24.8267C173.349 24.6847 173.46 24.4659 173.46 24.1705V24.1193C173.46 23.4773 173.27 22.9801 172.889 22.6278C172.509 22.2756 171.96 22.0994 171.244 22.0994C170.489 22.0994 169.889 22.2642 169.446 22.5938C169.009 22.9233 168.713 23.3125 168.56 23.7614L165.679 23.3523C165.906 22.5568 166.281 21.892 166.804 21.358C167.327 20.8182 167.966 20.4148 168.722 20.1477C169.477 19.875 170.313 19.7386 171.227 19.7386C171.858 19.7386 172.486 19.8125 173.111 19.9602C173.736 20.108 174.307 20.3523 174.824 20.6932C175.341 21.0284 175.756 21.4858 176.068 22.0653C176.386 22.6449 176.545 23.3693 176.545 24.2386V33H173.58V31.2017H173.477C173.29 31.5653 173.026 31.9062 172.685 32.2244C172.349 32.5369 171.926 32.7898 171.415 32.983C170.909 33.1705 170.315 33.2642 169.634 33.2642ZM170.435 30.9972C171.054 30.9972 171.591 30.875 172.045 30.6307C172.5 30.3807 172.849 30.0511 173.094 29.642C173.344 29.233 173.469 28.7869 173.469 28.304V26.7614C173.372 26.8409 173.207 26.9148 172.974 26.983C172.747 27.0511 172.491 27.1108 172.207 27.1619C171.923 27.2131 171.642 27.2585 171.364 27.2983C171.085 27.3381 170.844 27.3722 170.639 27.4006C170.179 27.4631 169.767 27.5653 169.403 27.7074C169.04 27.8494 168.753 28.0483 168.543 28.304C168.332 28.554 168.227 28.8778 168.227 29.2756C168.227 29.8438 168.435 30.2727 168.849 30.5625C169.264 30.8523 169.793 30.9972 170.435 30.9972ZM179.648 33V19.9091H182.597V22.1335H182.75C183.023 21.3835 183.474 20.7983 184.105 20.3778C184.736 19.9517 185.489 19.7386 186.364 19.7386C187.25 19.7386 187.997 19.9545 188.605 20.3864C189.219 20.8125 189.651 21.3949 189.901 22.1335H190.037C190.327 21.4062 190.815 20.8267 191.503 20.3949C192.196 19.9574 193.017 19.7386 193.966 19.7386C195.17 19.7386 196.153 20.1193 196.915 20.8807C197.676 21.642 198.057 22.7528 198.057 24.2131V33H194.963V24.6903C194.963 23.8778 194.747 23.2841 194.315 22.9091C193.884 22.5284 193.355 22.3381 192.73 22.3381C191.986 22.3381 191.403 22.571 190.983 23.0369C190.568 23.4972 190.361 24.0966 190.361 24.8352V33H187.335V24.5625C187.335 23.8864 187.131 23.3466 186.722 22.9432C186.318 22.5398 185.79 22.3381 185.136 22.3381C184.693 22.3381 184.29 22.4517 183.926 22.679C183.563 22.9006 183.273 23.2159 183.057 23.625C182.841 24.0284 182.733 24.5 182.733 25.0398V33H179.648Z" fill="white"/>
<defs>
<linearGradient id="paint0_linear_1770_19964" x1="116.695" y1="-20.3077" x2="102.751" y2="70.4738" gradientUnits="userSpaceOnUse">
<stop stop-color="#FF4763"/>
<stop offset="1" stop-color="#AC0053"/>
</linearGradient>
</defs>
</svg>
