<svg width="26" height="25" viewBox="0 0 26 25" fill="none" xmlns="http://www.w3.org/2000/svg">
<path d="M6.39948 13.8747L11.1115 18.5893L9.22748 20.4747L11.1142 22.3613L9.22882 24.2467L5.92882 20.9467L2.15682 24.7187L0.271484 22.8333L4.04348 19.06L0.743484 15.7613L2.62882 13.876L4.51415 15.76L6.39815 13.8747H6.39948ZM0.999484 0L5.72748 0.00400003L21.4835 15.7613L23.3702 13.876L25.2555 15.7613L21.9568 19.0613L25.7275 22.8333L23.8422 24.7187L20.0702 20.9467L16.7702 24.2467L14.8848 22.3613L16.7702 20.4747L1.00348 4.708L0.999484 0ZM20.2755 0L24.9995 0.00400003L25.0022 4.70133L19.5982 10.104L14.8835 5.39067L20.2755 0Z" fill="#329DFB"/>
</svg>
