<svg width="22" height="22" viewBox="0 0 22 22" fill="none" xmlns="http://www.w3.org/2000/svg">
<path d="M5.66865 0.333008H16.3353V2.99567H19.002V0.333008C19.709 0.333361 20.3869 0.614469 20.8867 1.11453C21.3866 1.61459 21.6673 2.29266 21.6673 2.99967V18.9997C21.6673 19.7067 21.3866 20.3848 20.8867 20.8848C20.3869 21.3849 19.709 21.666 19.002 21.6663V18.9957H16.3353V21.6663H5.66865V18.9957H3.00198V21.6663C2.29474 21.6663 1.61513 21.3854 1.11503 20.8853C0.614936 20.3852 0.333984 19.7069 0.333984 18.9997V2.99967C0.333984 2.29243 0.614936 1.61415 1.11503 1.11406C1.61513 0.613959 2.29341 0.333008 3.00065 0.333008L3.00198 2.99567H5.66865V0.333008ZM19.002 16.329V12.329H16.3353V16.329H19.002ZM19.002 9.66234V5.66234H16.3353V9.66234H19.002ZM5.66865 16.329V12.329H3.00198V16.329H5.66865ZM5.66865 9.66234V5.66234H3.00198V9.66234H5.66865Z" fill="#329DFB"/>
</svg>
