<svg width="32" height="32" viewBox="0 0 32 32" fill="none" xmlns="http://www.w3.org/2000/svg">
<g clip-path="url(#clip0_2254_18290)">
<path d="M10.6671 14.3468H9.89373C8.8384 14.3087 7.7865 14.4878 6.80329 14.8732C5.82009 15.2585 4.92657 15.8418 4.17818 16.5868L3.96484 16.8357V24.1957H7.59151V20.0179L8.0804 19.4668L8.30262 19.209C9.45989 18.0202 10.9006 17.1453 12.4893 16.6668C11.6939 16.0616 11.0666 15.2629 10.6671 14.3468Z" fill="#329DFB"/>
<path d="M27.8587 16.5605C27.1103 15.8154 26.2168 15.2321 25.2336 14.8468C24.2504 14.4615 23.1985 14.2823 22.1432 14.3205C21.8195 14.3214 21.4961 14.3392 21.1743 14.3738C20.7672 15.2333 20.1571 15.9807 19.3965 16.5516C21.0925 17.0208 22.6288 17.9426 23.8409 19.2182L24.0632 19.4671L24.5432 20.0182V24.2049H28.0454V16.8093L27.8587 16.5605Z" fill="#329DFB"/>
<path d="M9.8659 12.6135H10.1415C10.0134 11.5141 10.2063 10.4012 10.6969 9.40912C11.1874 8.417 11.9546 7.58806 12.9059 7.02237C12.5611 6.49557 12.0853 6.06736 11.5253 5.77966C10.9652 5.49196 10.3401 5.35464 9.711 5.38115C9.08193 5.40766 8.47054 5.59709 7.93668 5.93089C7.40281 6.26468 6.96479 6.73141 6.66551 7.28535C6.36622 7.8393 6.21592 8.46147 6.22934 9.09095C6.24276 9.72043 6.41942 10.3356 6.74204 10.8763C7.06466 11.417 7.52217 11.8647 8.06977 12.1754C8.61736 12.4862 9.23628 12.6494 9.8659 12.649V12.6135Z" fill="#329DFB"/>
<path d="M21.7151 11.947C21.7259 12.1513 21.7259 12.3561 21.7151 12.5604C21.8857 12.5874 22.058 12.6023 22.2307 12.6048H22.3995C23.0264 12.5714 23.6339 12.3762 24.163 12.0383C24.692 11.7004 25.1245 11.2313 25.4184 10.6766C25.7123 10.1219 25.8576 9.50053 25.8401 8.87303C25.8226 8.24552 25.6429 7.63325 25.3185 7.0958C24.9941 6.55836 24.5361 6.11407 23.9891 5.80618C23.442 5.49829 22.8246 5.3373 22.1968 5.33888C21.5691 5.34046 20.9524 5.50455 20.4069 5.81519C19.8614 6.12583 19.4057 6.57242 19.084 7.11149C19.8885 7.63676 20.55 8.35354 21.0093 9.1975C21.4685 10.0415 21.711 10.9862 21.7151 11.947Z" fill="#329DFB"/>
<path d="M15.8835 15.9291C18.0779 15.9291 19.8568 14.1502 19.8568 11.9558C19.8568 9.76134 18.0779 7.98242 15.8835 7.98242C13.6891 7.98242 11.9102 9.76134 11.9102 11.9558C11.9102 14.1502 13.6891 15.9291 15.8835 15.9291Z" fill="#329DFB"/>
<path d="M16.0969 18.0441C14.9361 17.9972 13.7777 18.1857 12.6916 18.5981C11.6055 19.0106 10.614 19.6385 9.77691 20.4441L9.55469 20.693V26.3197C9.55816 26.5029 9.5977 26.6837 9.67106 26.8517C9.74441 27.0197 9.85015 27.1716 9.98222 27.2987C10.1143 27.4258 10.2701 27.5257 10.4408 27.5926C10.6115 27.6595 10.7936 27.6921 10.9769 27.6885H21.1902C21.3735 27.6921 21.5557 27.6595 21.7264 27.5926C21.897 27.5257 22.0529 27.4258 22.1849 27.2987C22.317 27.1716 22.4227 27.0197 22.4961 26.8517C22.5695 26.6837 22.609 26.5029 22.6125 26.3197V20.7108L22.3991 20.4441C21.5674 19.636 20.5794 19.0063 19.4957 18.5937C18.412 18.181 17.2554 17.994 16.0969 18.0441Z" fill="#329DFB"/>
</g>
<defs>
<clipPath id="clip0_2254_18290">
<rect width="32" height="32" fill="white"/>
</clipPath>
</defs>
</svg>
