<svg width="30" height="30" viewBox="0 0 30 30" fill="none" xmlns="http://www.w3.org/2000/svg">
<path d="M21.8217 17.9052C22.9236 16.0955 23.5063 14.0176 23.5062 11.8988C23.5062 5.48027 18.3126 0.282833 11.8927 0.280273C5.47866 0.282193 0.279297 5.48027 0.279297 11.8976C0.279297 18.3091 5.4793 23.5065 11.8966 23.5065C14.0982 23.5065 16.1494 22.8844 17.9023 21.8214L25.8019 29.7203L29.7193 25.8009L21.8217 17.9052ZM11.8953 19.0835C7.92602 19.0739 4.71706 15.8662 4.71002 11.9052C4.71273 10.0003 5.47057 8.17413 6.81745 6.82701C8.16433 5.47989 9.99036 4.72172 11.8953 4.71867C15.8627 4.72891 19.0729 7.93659 19.0812 11.9052C19.0729 15.8617 15.8614 19.0739 11.8953 19.0835Z" fill="#329DFB"/>
</svg>
